<svg xmlns="http://www.w3.org/2000/svg" width="29" height="28" fill="none"><g clip-path="url(#a)"><path fill="#14CF93" d="M10.566.076c-.153.052-.232.128-.232.23V.46h.619c-.08.076-.157.153-.233.23l-.23.23.383-.077.387-.076-.387.306c-.255.204-.333.433-.23.688.052.128.104.255.153.383l-.307.076-.309.076.077-.306c.027-.102.052-.204.077-.306l-.153.153c-.104.102-.052.434.153.994.206.561.104 1.02-.307 1.377-.413.357-.54.817-.386 1.377l.23.842c-.102-.077-.206-.153-.307-.23l-.31-.23V7.19H8.175c.026.077.05.153.077.23.052.153.282.23.693.23h.619v.229c0 .153-.104.255-.31.306l-.309.076c.027.077.052.153.08.23.049.153 0 .306-.157.459l-.23.23.462.152c.307.102.436.306.387.613-.052.306-.156.535-.31.688-.153.154-.309.178-.462.076a14.59 14.59 0 0 0-.233-.152l.157.306.153.306-.31.153a.873.873 0 0 1-.616.076c-.206-.051-.515.026-.926.23-.41.204-.745.28-1.002.23a1.07 1.07 0 0 0-.771.152c-.258.154-.54.23-.85.23-.308 0-.487.076-.539.23-.051.152-.307.23-.77.23h-.695c.077.101.153.203.233.305l.23.306.309-.23c.206-.152.488-.229.849-.229h.54l-.157.153c-.05.052-.101.102-.153.153.077.026.153.052.232.076.153.052.206.28.153.689-.027.204-.051.408-.077.612l.308-.306c.205-.204.284-.382.232-.535-.052-.154.052-.28.31-.383.255-.101.435-.076.539.077l.153.23a50.31 50.31 0 0 1-.463.306h1.08v.306c.078-.026.155-.05.232-.077.153-.051.386.026.692.23.31.204.361.51.156.918-.103.204-.205.409-.309.613h.232c.154 0 .282.152.384.458l.156.46-1.235.381c-.822.255-1.235.561-1.235.919v.536H5.55c-.104 0-.18-.154-.23-.46-.052-.305-.13-.458-.233-.458h-.153c.025.153.05.306.077.459l.077.459-.463.076c-.309.051-.462.153-.462.306v.23h.232c.153 0 .282.127.384.382.104.255.258.383.463.383.205 0 .36.076.462.23.104.152.233.23.387.23h.232c-.077-.027-.156-.052-.232-.077l-.23-.077c.05-.102.1-.204.153-.306.103-.204.232-.306.386-.306s.31.153.462.459l.23.459c.028-.052.052-.102.08-.153.05-.102.178-.128.384-.076l.31.076-.617.306c-.413.204-.592.383-.54.536.05.153.179.255.384.306.206.05.334.178.387.383.027.102.051.204.076.306l-.616-.153-.616-.153c.101.077.205.153.307.23.205.153.334.331.386.535.052.204-.129.51-.54.918l-.616.613.386.152c.256.102.384.23.384.383 0 .152-.077.254-.23.306-.154.051-.206.306-.154.765.05.458.179.713.384.764.205.052.334.28.386.689.027.204.052.408.077.612l.156-.23c.101-.152.23-.204.386-.152.154.051.334-.179.54-.689.206-.51.359-1.25.462-2.218.102-.969.258-1.76.463-2.372.206-.612.282-1.096.23-1.453l-.077-.536h.153c.104 0 .18-.128.233-.382.051-.255.205-.459.462-.612.258-.154.463-.204.617-.154.153.052.333-.05.539-.306.206-.255.515-.332.926-.23.412.102.747.077 1.002-.076l.386-.23.156.383c.101.254.462.408 1.079.458.616.052.95.128 1.002.23a.67.67 0 0 1 .077.306c0 .102-.153.179-.463.23l-.462.076c.052.179.103.357.156.535.05.179.101.358.153.536l-.31-.076a47.485 47.485 0 0 0-.306-.076c.025.127.05.254.077.382l.077.383h-.463c.052.05.104.102.153.152l.156.154c-.051.05-.103.102-.156.152-.101.102-.153.332-.153.689v.536h.23c.156 0 .258.102.31.306.027.102.051.204.077.306l-.308-.23-.309-.23-.077.536c-.052.357-.129.535-.232.535h-.153c.18.026.358.052.539.076l.54.077-.308.153c-.103.05-.205.102-.309.152l.23.077c.156.051.258.382.31.994.051.612.153.97.309 1.071.153.102.386.052.692-.153.31-.204.463-.383.463-.535v-.23l-.23.076c-.077.025-.156.05-.233.077v-.153c0-.102.104-.178.31-.23l.31-.076c-.028-.102-.053-.204-.08-.306-.05-.204-.025-.332.08-.383.1-.051.1-.28 0-.688-.105-.408-.053-.663.152-.765.206-.102.31-.28.31-.536 0-.255-.052-.408-.157-.459a6.074 6.074 0 0 0-.153-.076l.387-.612c.257-.408.41-.943.462-1.607.052-.663.129-.995.23-.995h.156v-.306c0-.204.077-.382.23-.535.154-.153.387-.179.696-.077.307.102.54.076.693-.076l.232-.23.23.23.232.23c.078-.102.154-.204.23-.306.154-.205.31-.307.463-.307.153 0 .361.077.617.23.257.153.438.153.541 0 .102-.153.307-.255.617-.306l.462-.076v.459l.617-.153c.41-.102.695-.076.848.076l.233.23c.025-.102.05-.204.077-.306.051-.204.462-.255 1.232-.153l1.158.153v-.459h.31c.205 0 .333.076.383.23l.08.23a10.748 10.748 0 0 0-.157-.077l-.153-.076c-.027.051-.052.102-.077.152l-.077.153.307.077a.65.65 0 0 0 .54-.077c.079-.05.156-.102.232-.152a138.525 138.525 0 0 0-.31-.46H29v-.382c0-.255-.157-.485-.463-.689-.31-.204-.567-.178-.772.076l-.31.383.157-.383.153-.382a9168.13 9168.13 0 0 1-4.704-.23c-1.569-.076-3.138-.152-4.704-.23l.23-.612c.153-.408.18-.79.077-1.147-.052-.178-.102-.357-.153-.536l.309-.076a.49.49 0 0 0 .384-.383c.052-.204.31-.254.772-.152l.695.152v-.152c0-.102-.103-.179-.309-.23-.206-.051-.31-.153-.31-.306s.104-.28.31-.382c.102-.052.206-.102.31-.153v.765c.153-.025.307-.05.462-.077.307-.051.462-.178.462-.382v-.306l.23.153c.154.102.206.23.154.382-.025.076-.05.153-.077.23h1.235l-.077-.383c-.052-.254-.027-.408.077-.459l.153-.076.156.383c.102.254.36.33.77.23.41-.103.695 0 .849.305.153.306.309.46.462.46h.232V12.7l.384.076.386.077-.23-.23a.724.724 0 0 1-.233-.535v-.306l-.539.153c-.359.102-.565.076-.616-.076-.028-.076-.052-.153-.077-.23l-.233.153-.23.153c.025-.076.05-.153.077-.23l.077-.23-.232-.076a1.257 1.257 0 0 0-.384-.076h-.156l.156.153.153.153-.386-.153-.387-.153-.077.23-.077.23-.076-.23c-.052-.153-.157-.23-.31-.23h-.23v.612h-.156c-.102 0-.178-.076-.23-.23-.052-.153-.028-.28.077-.382l.153-.153h-1.232v.306l-.387-.153-.386-.153.077.306.077.306c-.052-.05-.101-.101-.153-.152-.104-.102-.258-.102-.462 0l-.31.152.156-.306c.05-.102.102-.204.154-.306a36.886 36.886 0 0 1-.154-.076c-.103-.051-.156-.28-.156-.688 0-.409.077-.689.232-.842.078-.076.154-.152.23-.23a97.863 97.863 0 0 0-.539-.076c-.359-.05-.54-.128-.54-.23v-.152h.31v-.23c0-.153.153-.255.463-.306l.462-.076-.156-.613-.153-.612h.23c.156 0 .284-.102.386-.306l.156-.306a85.892 85.892 0 0 0-.386-.153l-.386-.153h.386c.258 0 .41-.05.462-.153l.078-.152h-.463v-.46c.077.027.153.051.23.077.156.052.284.026.386-.076.104-.102.13-.306.077-.612-.05-.306-.025-.51.08-.612.05-.052.1-.103.153-.153l-.54-.077-.54-.076.231-.765c.077-.254.153-.51.232-.765h-.309v.46l-.462-.077c-.31-.052-.515-.026-.617.076l-.156.154.386.382.387.382c-.078.026-.154.052-.233.077l-.23.076-.077-.23a7.747 7.747 0 0 1-.077-.23c-.027.077-.052.154-.08.23a6.186 6.186 0 0 1-.076.23l-.23-.076-.232-.077v.536c0 .357.076.637.232.841l.23.307h-.77l.154.23c.101.152.076.305-.077.458l-.233.23.233.152c.077.052.153.103.23.153-.102.154-.206.306-.307.459l-.31.459h.463v.306c0 .204.101.357.31.459.1.051.205.102.306.152l-.462.077c-.307.051-.488 0-.54-.154-.025-.076-.052-.152-.077-.23l-.309.307-.307.306c.129.076.257.152.383.23.258.152.386.28.386.382v.152h-.462v.46l-.386-.307-.384-.306c.025.204.05.408.077.612.051.408.18.663.386.765l.307.153-2.237.076c-1.49.052-2.544.153-3.16.306-.619.153-.978.153-1.082 0-.1-.153-.1-.536 0-1.147.104-.612.028-.943-.23-.995a74.168 74.168 0 0 0-.386-.076 107.046 107.046 0 0 0 .925-.153l-.077-.382a25.946 25.946 0 0 1-.077-.383h.307c-.025-.178-.05-.356-.077-.535-.051-.357 0-.662.154-.918.156-.255.309-1.122.462-2.601.156-1.48.156-2.244 0-2.295-.153-.051-.206-.204-.153-.459.027-.127.052-.254.077-.382h-.23c-.156 0-.258-.102-.31-.306l-.077-.306-.309.076-.307.076.077-.23.077-.229h-.153c-.104 0-.233.026-.387.076h.003Zm.23 1.607c.028.051.052.102.077.153a4.374 4.374 0 0 0-.077-.153Zm8.023.689.153.076-.153-.076-.156-.077c.051.026.103.052.156.077Zm-8.87 1.223c.026.077.05.154.078.23.025-.05.05-.102.077-.153l.077-.152a28.245 28.245 0 0 1-.31-.153c.028.076.052.153.08.23l-.001-.002Zm10.874-.152.153.076-.153-.076Zm-1.697.994Zm-1.002.23c.027.076.052.153.077.23-.026-.077-.05-.154-.077-.23l-.077-.23.077.23Zm1.927-.076.157.152-.157-.152ZM18.82 6.274h.307l-.077.152c-.025.052-.052.102-.077.153l-.077-.153c-.027-.051-.052-.102-.077-.152Zm-9.255.458.153.153.153.153c-.05-.052-.101-.102-.153-.153-.052-.051-.104-.102-.153-.153Zm8.329 3.06Zm-8.948.307.156.152a14.78 14.78 0 0 0-.156-.152Zm10.027.152.23.077c.08.025.156.05.232.076l-.232.076-.23.077v-.306Zm-11.415.841c.052.026.103.052.156.077l-.156-.077Zm5.09.383v.459h-.462l.232-.23.23-.23v.001Zm8.792.535Zm2.623-.076c.052.05.102.102.153.152l.156.153h-.462c.025-.051.05-.102.077-.153l.077-.152Zm-10.952.152.232.077-.232-.077Zm-7.405.306.463.153h-.77c.025.052.05.102.077.153l.077.153-.31.076c-.1.026-.205.051-.306.076.05-.127.101-.255.153-.382.103-.255.31-.331.616-.23v.002Zm8.176 0c.104.051.206.103.31.153.101.052.205.102.307.153h-.77c.025-.052.05-.102.077-.153l.077-.152Zm5.4 0h.463v.46c-.08-.077-.157-.153-.233-.23l-.23-.23Zm-7.097.153.232.076.23.077-.307.153-.309.153.077-.23c.027-.076.052-.153.077-.23v.001Zm13.42.076c.051.026.103.052.156.077l-.156-.077Zm-19.28.077.23.153.232.153-.309.23c-.206.152-.386.152-.54 0a12.605 12.605 0 0 0-.232-.23l.233-.076c.153-.052.282-.026.386.076l.153.153-.077-.23c-.027-.076-.052-.153-.077-.23Zm6.632 0 .309.076.307.077c-.025.076-.05.153-.077.23l-.077.23.849-.154c.565-.102.898-.051 1.002.153.104.204.334.23.693.076l.541-.23.153.537c.104.356.104.612 0 .764a13.89 13.89 0 0 0-.153.23c-.027-.05-.052-.102-.079-.153a4.328 4.328 0 0 0-.077-.152l-.153.076c-.104.051-.129.153-.077.306l.077.23h-.616c.1.153.205.306.307.459.103.152.205.306.309.458h-.31c-.205 0-.386.103-.539.307-.153.204-1.027.382-2.623.535l-2.39.23.079-1.148c.05-.765.127-1.173.23-1.224.104-.05.153-.204.153-.458v-.383h.463v-.765l.771.306c.516.204.874.28 1.08.23l.309-.076-.31-.076a55.075 55.075 0 0 0-.307-.077c.025-.102.05-.204.077-.306l.077-.306.002-.002Zm11.492.153.077-.153-.077.153Zm-1.389.382c-.027.076-.051.153-.076.23l.616.076c.206.026.41.052.616.076v-.458l-.307.076a.655.655 0 0 1-.541-.076 38.155 38.155 0 0 0-.23-.153l-.078.23v-.001Zm1.696-.076c-.025.051-.05.102-.077.152h.31l-.078-.152-.077-.153-.079.153Zm1.697 0-.077.152h.463a14.05 14.05 0 0 0-.31-.305l-.076.153Zm-10.49 1.07c-.025-.05-.05-.101-.077-.152.028.051.052.102.077.153Zm-1.079.995.233.23c-.08-.076-.156-.153-.233-.23l-.23-.23.23.23Zm-7.17.23c.024.051.049.102.076.153-.027-.051-.052-.102-.077-.153Zm.462.459.307.076-.307-.076Zm6.785.076-.153.076.077.154c.027.05.052.102.077.152l.156-.076c.05-.026.102-.051.153-.076l-.077-.154c-.027-.051-.051-.102-.077-.152l-.156.076Zm-7.866.459.156.076-.156-.076Zm-.463.382Zm17.122 0c.052.026.103.052.156.077l-.156-.077Zm1.235.153h.153c.104 0 .18.102.232.306l.077.306-.232-.076c-.153-.052-.23-.154-.23-.306v-.23Zm1.85 0 .154.076c.052.026.103.052.156.077l-.156-.077-.153-.076Zm-14.345.306h.617c-.025.076-.05.153-.077.23-.025.076-.052.152-.077.23h.462l-.077.306c-.052.204-.257.331-.618.382l-.54.076c.027-.127.052-.254.077-.382.027-.128.052-.255.08-.383.1.052.205.103.306.153l.31.153c-.077-.128-.153-.255-.233-.383l-.23-.382Zm10.334 0h.463v.459l-.23-.23c-.077-.076-.157-.153-.233-.23v.001Zm-11.569.153h.156c.102 0 .179.127.23.382.028.128.052.255.077.383l-.23-.383-.232-.382Zm13.19.152.23.154-.54.152-.54.153.31-.306c.206-.204.384-.255.54-.153Zm-3.779 0 .23.154c.077.051.154.102.233.152h-.619c.027-.05.052-.101.077-.152l.08-.154Zm5.553 0h.307v.154c0 .102-.128.178-.386.23l-.383.076c.025-.076.05-.153.077-.23.051-.152.178-.23.386-.23Zm-23.986.613-1.158.306c.104.178.208.357.31.536l.309.535v-.765h.23c.156 0 .284.102.386.306.104.205.025.434-.23.689l-.386.383h1.079v-1.072l.077.153c.051.102.232.153.54.153h.462l-.23-.306c-.078-.102-.154-.204-.233-.306.206-.052.413-.102.619-.153.41-.102.616-.23.616-.382 0-.153-.206-.255-.616-.306-.413-.052-1.002.025-1.775.23v-.001Zm16.813 0Zm-15.657.076.156.076-.156-.076Zm7.097-.076h.463v.306c-.08-.051-.156-.102-.232-.153a41.605 41.605 0 0 0-.23-.153ZM.232 18.74c-.079.076-.156.153-.232.23l.31-.077c.205-.051.333-.128.386-.23.025-.051.05-.102.077-.153H.616c-.101 0-.23.076-.384.23Zm2.698-.077.156.077.153.076-.077.153c-.027.051-.052.102-.077.153-.027-.076-.052-.153-.077-.23-.027-.076-.052-.153-.08-.23l.002.001Zm2.393.23c.153.05.23.153.23.306v.23c-.104-.05-.206-.102-.31-.153-.1-.051-.205-.102-.307-.152l.077-.154c.052-.102.154-.128.31-.076Zm-4.397.459c.052.076.103.152.153.23l.079-.23c.025-.076.05-.154.077-.23H.773c.051.076.1.153.153.23Zm2.546.612c-.052.153-.027.255.077.306l.153.076.077-.306c.027-.102.052-.204.077-.306h-.153c-.104 0-.18.077-.23.23h-.001Zm-2.084 0-.153-.076.153.076Zm12.648 0 .156.076a10.258 10.258 0 0 0-.156-.076 6.073 6.073 0 0 0-.153-.076l.153.076Zm1.235.536.077.152.077.153a4.328 4.328 0 0 0-.077-.152c-.025-.052-.052-.102-.077-.153Zm-6.479.306.154.153.156.153-.31.306-.309.306.156-.459c.05-.152.102-.306.154-.458v-.001Zm4.937 1.53-.156-.153.156.153Zm-7.404.612-.156-.154c.051.052.103.102.156.154Zm.77.152c.051.052.103.102.155.153-.051-.05-.103-.102-.156-.152Zm6.17 1.071-.155-.152c.051.051.103.102.156.152Zm-6.478.154.307.152-.307-.152Zm7.48 1.224c-.027.05-.051.102-.076.153l.23.076c.077.026.153.052.232.077l-.156-.23-.153-.23-.077.153Z"/></g><defs><clipPath id="a"><path fill="#fff" d="M0 0h29v28H0z"/></clipPath></defs></svg>