<svg xmlns="http://www.w3.org/2000/svg" width="569" height="510" fill="none"><g clip-path="url(#a)"><path fill="#F9F9F9" d="M0 0h570v510H0z"/><g fill="#EEE" clip-path="url(#b)"><path d="M518.778 909.724a9.6 9.6 0 0 1-3.657-.712c-5.031-2.037-7.486-7.731-5.473-12.762.589-1.473 1.669-3.657 4.099-8.467 8.713-17.376 31.883-63.515 38.681-101.187 6.406-35.463-28.667-103.42-43.074-127.202l-50.218-65.871a5.166 5.166 0 0 1-.515-.761l-32.791-52.471-38.412-60.52c-9.375-11.609-138.625-171.869-169.55-219.554-12.812-19.732-17.034-36.887-12.959-52.447 5.767-21.916 26.286-34.236 46.83-44.961 16.812-8.786 38.46-17.4 54.267-23.658 8.148-3.24 17.279-6.872 20.396-8.492 4.442-6.553 22.973-41.304 62.833-120.992 11.879-23.733-5.474-52.373-20.765-77.627-6.111-10.087-11.854-19.585-15.07-27.978-9.547-25.082 5.326-48.986 12.493-60.496 1.031-1.645 2.283-3.657 2.798-4.688.908-4.491 4.885-7.902 9.646-7.902 5.424 0 9.842 4.417 9.842 9.841 0 4.148-2.11 7.534-5.596 13.13-6.308 10.136-16.886 27.119-10.799 43.071 2.552 6.725 7.878 15.486 13.499 24.788 8.124 13.424 17.328 28.616 22.777 44.568 6.774 19.83 6.357 36.863-1.227 52.054-10.186 20.37-25.084 49.992-38.191 75.418-24.691 47.857-27.072 49.894-29.158 51.686-3.068 2.65-9.131 5.104-26.189 11.903-15.413 6.111-36.497 14.504-52.426 22.824-16.641 8.688-33.208 18.382-36.914 32.518-2.553 9.743.957 22.112 10.431 36.74 30.852 47.587 167.342 216.633 168.716 218.326.246.295.442.589.663.908l38.706 61.012s0 .049.024.049l32.57 52.103 50.242 65.92c.197.27.393.564.589.859.565.908 13.769 22.701 26.115 50.679 17.034 38.63 23.685 69.135 19.783 90.683-7.314 40.446-30.533 86.732-40.449 106.513-1.522 3.019-3.093 6.16-3.412 6.946-1.546 3.828-5.252 6.16-9.155 6.16v.049Z"/><path d="M170.99 203.058c-.59 0-1.179-.098-1.768-.27a5.905 5.905 0 0 1-3.632-3.264l-14.432-32.813a5.938 5.938 0 0 1 .712-5.963l12.468-16.394a5.843 5.843 0 0 1 3.117-2.111l21.869-6.086 13.254-15.683c2.111-2.479 5.841-2.798 8.32-.687 2.479 2.111 2.798 5.841.687 8.32l-14.431 17.056a5.89 5.89 0 0 1-2.921 1.866l-21.697 6.037-9.155 12.05 10.308 23.438c33.478-20.444 115.529-70.387 125.028-74.338 1.767-1.203 8.419-8.418 21.746-27.929 10.235-14.946 20.347-31.267 25.796-41.55 8.836-16.688 12.763-65.724 13.671-85.897-7.388-9.62-25.575-33.451-27.514-37.304a5.923 5.923 0 0 1 2.651-7.927 5.905 5.905 0 0 1 7.903 2.601c1.424 2.602 15.144 20.91 27.637 37.132a6.009 6.009 0 0 1 1.227 3.829c-.098 2.847-2.823 69.847-15.119 93.088-5.891 11.142-16.739 28.518-27.588 44.299-19.414 28.199-24.127 30.064-26.336 30.726-6.725 2.774-82.394 48.545-128.684 76.842a6.003 6.003 0 0 1-3.093.859l-.024.073Zm128.242-88.989s-.221.073-.319.098c.123-.049.221-.074.319-.098Z"/><path d="M-12.085 348.053a5.952 5.952 0 0 1-4.173-1.718 5.895 5.895 0 0 1 0-8.344l43.32-43.317a5.889 5.889 0 0 1 2.16-1.374l86.985-31.684-7.216-31.979-14.874 12.689c-2.38 2.037-5.964 1.84-8.124-.442s-2.16-5.866 0-8.124l66.269-69.675c2.258-2.356 5.989-2.454 8.345-.22 2.356 2.257 2.454 5.988.196 8.344l-42.608 44.789c.049.147.098.319.122.467l10.505 46.58a5.905 5.905 0 0 1-3.73 6.848L34.45 303.902l-42.387 42.384a5.888 5.888 0 0 1-4.173 1.718l.025.049Zm82.542 483.749c-4.934 0-15.905-.932-42.093-4.786-3.216-.466-5.45-3.485-4.983-6.7.466-3.239 3.485-5.448 6.7-4.982 16.74 2.479 36.694 4.909 40.842 4.713 4.492-1.792 26.336-10.357 35.491-13.965L95.541 633.87c-.098-1.423.343-2.822 1.202-3.976l58.194-75.908L73.23 377.405l-56.18 15.707a5.875 5.875 0 0 1-7.192-3.853 5.916 5.916 0 0 1 3.51-7.363l263.702-100.18-1.669-30.408-24.274-43.415a5.886 5.886 0 0 1 2.135-7.952c.123-.073 11.487-6.822 23.121-13.498 24.814-14.234 26.434-14.234 28.446-14.234.859 0 10.775-.491 24.471-1.129 102.569-4.81 221.78-10.136 233.512-8.664 3.24.393 5.523 3.363 5.13 6.602-.393 3.24-3.363 5.522-6.602 5.13-12.223-1.522-177.258 6.209-231.476 8.761-16.076.761-22.114 1.031-24.176 1.104-4.123 1.596-23.169 12.394-41.43 23.168l22.114 39.587c.442.785.687 1.668.736 2.552l1.964 36.101a5.883 5.883 0 0 1-3.804 5.841L82.066 368.447l85.07 183.845a5.881 5.881 0 0 1-.663 6.062l-59.028 76.989 11.02 174.298a5.894 5.894 0 0 1-3.731 5.865c-.368.147-36.767 14.456-40.007 15.732-.564.221-1.374.54-4.295.54l.025.024Zm234.519-647.789h-.123.123Z"/><path d="M35.162 617.108c-2.307 0-4.516-1.375-5.449-3.632a5.912 5.912 0 0 1 3.19-7.731l62.932-26.211 175.981-78.707-2.675-11.804-23.832-4.246-95.256 44.47a5.883 5.883 0 0 1-4.516.196 5.935 5.935 0 0 1-3.338-3.067l-6.578-14.21L31.284 565.25c-2.896 1.473-6.455.319-7.952-2.576-1.473-2.896-.32-6.455 2.577-7.952l109.81-55.858c1.424-.736 3.093-.834 4.614-.319 1.522.515 2.749 1.644 3.437 3.092l6.651 14.382 91.574-42.752a5.838 5.838 0 0 1 3.534-.467l29.527 5.252a5.939 5.939 0 0 1 4.737 4.516l4.59 20.345a5.936 5.936 0 0 1-3.338 6.701l-180.473 80.718s-.098.05-.147.05L37.42 616.617a5.729 5.729 0 0 1-2.258.466v.025Z"/><path d="M244.498 484.556a5.904 5.904 0 0 1-5.547-3.878l-8.835-23.953-62.711-73.871L102.56 412.5c-2.97 1.35-6.48.049-7.83-2.92-1.35-2.97-.049-6.479 2.921-7.829l68.895-31.488a5.879 5.879 0 0 1 6.946 1.547l66.269 78.092c.442.54.81 1.129 1.031 1.792l9.18 24.935a5.901 5.901 0 0 1-3.51 7.583 5.948 5.948 0 0 1-2.037.368l.073-.024Z"/><path d="M187.287 511.258a5.895 5.895 0 0 1-5.301-3.289l-55.642-112.672c-1.448-2.921-.245-6.455 2.676-7.903 2.92-1.448 6.455-.245 7.903 2.675l55.641 112.673c1.448 2.92.246 6.454-2.675 7.902a5.853 5.853 0 0 1-2.602.614Zm300.665 401.778c-7.241 0-13.132-5.865-13.132-13.13V759.599l-34.705-105.973-126.451-156.922a7.907 7.907 0 0 1-.54-.711L192.465 323.609a13.006 13.006 0 0 1-1.792-3.657l-45.627-148.308L19.798 58.604c-5.376-4.86-5.817-13.155-.958-18.53 4.86-5.375 13.156-5.816 18.531-.957l127.973 115.495c1.767 1.595 3.043 3.632 3.755 5.89l46.094 149.78 119.211 170.323 127.678 158.443a12.907 12.907 0 0 1 2.258 4.148l36.104 110.243c.442 1.325.663 2.7.663 4.074v142.393c0 7.24-5.866 13.13-13.131 13.13h-.024Z"/><path d="M45.864 70.334a5.915 5.915 0 0 1-3.952-1.521 5.924 5.924 0 0 1-.417-8.345c34.239-37.77 86.125-95.321 89.733-100.107 1.595-2.528 4.884-3.46 7.633-2.11 2.921 1.448 4.099 5.006 2.651 7.927-.589 1.153-1.178 2.356-46.56 52.74C72.789 43.535 50.478 68.15 50.257 68.396a5.91 5.91 0 0 1-4.369 1.94h-.024Z"/><path d="M327.899 91.735a5.85 5.85 0 0 1-4-1.57L145.046-75.175h-18.457L33.199 43.313c-2.013 2.552-5.744 2.994-8.296.981-2.553-2.012-2.995-5.742-.982-8.295l95.157-120.747a5.91 5.91 0 0 1 4.639-2.258h23.636a5.86 5.86 0 0 1 4.001 1.57L331.9 81.478a5.877 5.877 0 0 1 .319 8.344 5.897 5.897 0 0 1-4.344 1.89l.024.024Z"/><path d="M294.029 60.42a5.832 5.832 0 0 1-4-1.571L226.042-.298a5.941 5.941 0 0 1-1.89-4.614 5.906 5.906 0 0 1 2.307-4.417l35.442-27.218a5.907 5.907 0 0 1 2.16-1.055l43.026-10.75c.834-7.436 1.791-15.976 2.871-25.768l-70.981 10.479c-16.666 12.517-34.681 26.555-38.142 29.99a5.772 5.772 0 0 1-1.595 1.866c-2.577 1.988-6.283 1.521-8.296-1.056a5.995 5.995 0 0 1-1.203-4.49c.393-2.823.516-3.78 22.851-21.058 10.137-7.853 20.347-15.51 20.47-15.584a6.018 6.018 0 0 1 2.675-1.13L315.8-86.906a5.854 5.854 0 0 1 4.958 1.595 5.923 5.923 0 0 1 1.767 4.909 23924.605 23924.605 0 0 1-4.001 35.733 5.941 5.941 0 0 1-.368 3.289c-2.503 22.505-4.688 42.408-4.811 43.98v-.32c0 .982 0 2.086-13.671 53.747a5.93 5.93 0 0 1-4.049 4.172 6.36 6.36 0 0 1-1.645.246l.049-.025ZM239.198-4.226l51.616 47.735c4.688-17.793 10.333-39.537 10.824-42.016.172-1.964.908-9.105 4.05-37.304l-37.577 9.4L239.198-4.2v-.025Zm62.44 5.719c0 .122-.049.392-.049.736 0-.074 0-.196.049-.736ZM200.32-40.056c.466.613.81 1.3 1.006 2.012a6.183 6.183 0 0 0-1.006-2.012Zm84.676 234.303c-1.988 0-3.952-1.006-5.056-2.846l-26.729-44.078a5.908 5.908 0 0 1 1.988-8.123 5.91 5.91 0 0 1 8.125 1.987l26.728 44.078a5.908 5.908 0 0 1-1.988 8.124 5.809 5.809 0 0 1-3.068.858ZM153.93 831.655h-87.5a5.918 5.918 0 0 1-5.914-5.914 5.918 5.918 0 0 1 5.915-5.915h80.553l-5.448-33.844a5.925 5.925 0 0 1 2.97-6.111l11.805-6.552c.81-.442 1.718-.712 2.626-.737l160.985-6.528 24.569-10.7a5.958 5.958 0 0 1 2.356-.491H370.9l108.338-8.222-6.333-37.377a5.926 5.926 0 0 1 4.418-6.725l75.793-18.505-26.213-46.703-55.568-75.835a5.586 5.586 0 0 1-.663-1.178l-21.942-51.612-35.442-39.955a7.783 7.783 0 0 1-.54-.712l-51.837-80.056a6.211 6.211 0 0 1-.884-2.258l-12.468-76.767a6.68 6.68 0 0 1-.049-1.571l3.289-31.488c.319-3.018 2.847-5.301 5.866-5.301h68.969l71.693-31.659a5.785 5.785 0 0 1 2.945-.466c4.86.466 47.738 4.663 54.39 5.988 3.191.638 5.277 3.755 4.639 6.945-.638 3.191-3.756 5.277-6.946 4.639-4.467-.884-32.767-3.829-51.69-5.669l-71.423 31.536a5.745 5.745 0 0 1-2.381.491h-64.895l-2.651 25.426 12.15 74.779 50.929 78.633 35.785 40.347a5.798 5.798 0 0 1 1.006 1.62l22.041 51.858 55.371 75.565c.148.196.27.392.393.589l30.189 53.796a5.904 5.904 0 0 1 .27 5.252 5.939 5.939 0 0 1-4.025 3.387L485.423 712.7l6.48 38.359a5.874 5.874 0 0 1-1.178 4.614c-1.031 1.301-2.553 2.135-4.198 2.258l-115.038 8.712h-23.488l-24.471 10.651a5.744 5.744 0 0 1-2.111.491l-160.69 6.504-6.97 3.878 5.89 36.592a5.94 5.94 0 0 1-1.325 4.761 5.955 5.955 0 0 1-4.492 2.086l.098.049Z"/><path d="M172.29 783.896c-2.921 0-5.473-2.184-5.841-5.154l-13.107-103.003-5.228-29.377c-.343-1.988.344-4.049 1.841-5.399l70.883-64.3a6.105 6.105 0 0 1 2.676-1.399l83.008-18.652 39.884-39.243a5.871 5.871 0 0 1 4.492-1.693 5.93 5.93 0 0 1 4.27 2.184l21.575 26.775 61.753-56.275c2.405-2.184 6.136-2.012 8.344.393 2.209 2.405 2.013 6.135-.392 8.344l-66.392 60.497a5.915 5.915 0 0 1-4.442 1.521 5.899 5.899 0 0 1-4.148-2.184l-21.427-26.579-36.424 35.856a5.999 5.999 0 0 1-2.847 1.546l-83.131 18.676-67.3 61.061 4.688 26.309s.025.197.049.295l13.131 103.15a5.89 5.89 0 0 1-5.105 6.602 7.754 7.754 0 0 1-.761.049h-.049Z"/><path d="M464.979 491.109c-5.645 0-6.43-5.866-6.799-8.663-.319-2.307-.613-5.473-.908-9.744-.491-6.92-.981-16.541-1.472-28.616-.099-2.184-.172-4.368-.246-6.528l-30.925 1.694c-3.265.196-6.038-2.307-6.21-5.571a5.885 5.885 0 0 1 5.572-6.21l31.17-1.693c-.22-6.995-.392-13.155-.515-17.327H410.81l-84.284 74.633c-2.43 2.16-6.185 1.939-8.345-.516-2.16-2.454-1.939-6.184.515-8.344l85.954-76.105a5.911 5.911 0 0 1 3.927-1.473h51.837c3.215 0 5.817 2.553 5.915 5.768.172 7.51.393 15.216.638 22.726l77.142-4.221a5.845 5.845 0 0 1 4.394 1.619 5.902 5.902 0 0 1 1.84 4.295v51.833a5.923 5.923 0 0 1-5.399 5.89c-18.065 1.546-77.24 6.578-79.916 6.578l-.049-.025Zm2.356-54.189c.688 18.578 1.522 34.654 2.307 42.041 12.076-.933 44.155-3.633 68.847-5.743v-40.176l-71.129 3.878h-.025Zm-101.44-46.213a5.889 5.889 0 0 1-4.59-2.184l-80.726-99.077a5.921 5.921 0 0 1-1.325-3.73v-38.703a5.897 5.897 0 0 1 3.78-5.497l72.847-28.224a5.939 5.939 0 0 1 4.712.197 5.927 5.927 0 0 1 3.068 3.583l7.879 25.597c.957 3.117-.786 6.43-3.903 7.387-3.117.958-6.43-.785-7.388-3.902l-6.013-19.535-63.152 24.468v32.568l77.339 94.928 73.558-8.81s.221 0 .319-.025c5.449-.343 133.496-8.54 140.81-8.54a5.918 5.918 0 0 1 5.915 5.914 5.919 5.919 0 0 1-5.915 5.915c-5.768 0-102.766 6.135-139.902 8.516l-76.626 9.179c-.246.024-.467.049-.712.049l.025-.074Z"/><path d="M456.462 353.968a6.016 6.016 0 0 1-4.074-1.62 5.878 5.878 0 0 1-1.841-4.369l.565-39.954h-28.128a5.898 5.898 0 0 1-5.89-5.473l-3.461-46.066-25.796 4.222c-1.718.27-3.461-.197-4.786-1.326a5.91 5.91 0 0 1-2.086-4.491v-57.747a5.901 5.901 0 0 1 5.498-5.89c2.356-.172 58.022-3.952 64.723-3.952a5.919 5.919 0 0 1 5.915 5.915 5.919 5.919 0 0 1-5.915 5.915c-4.688 0-39.786 2.307-58.415 3.558v45.28l25.305-4.123a5.995 5.995 0 0 1 4.614 1.178 5.919 5.919 0 0 1 2.233 4.197l3.535 47.023h28.643a5.89 5.89 0 0 1 4.197 1.767 5.914 5.914 0 0 1 1.693 4.221l-.564 39.537 81.535-5.473a5.888 5.888 0 0 1 6.283 5.498 5.889 5.889 0 0 1-5.497 6.283l-87.942 5.914h-.393l.049-.024Zm9.179 112.819a5.918 5.918 0 0 1-5.891-5.497c-.221-3.264 2.234-6.086 5.474-6.307l78.737-5.547c3.24-.221 6.087 2.233 6.308 5.473.221 3.264-2.234 6.087-5.474 6.307l-78.737 5.547h-.417v.024Z"/><path d="M499.046 464.014a5.918 5.918 0 0 1-5.915-5.914v-28.837a5.919 5.919 0 0 1 5.915-5.915 5.919 5.919 0 0 1 5.915 5.915V458.1a5.918 5.918 0 0 1-5.915 5.914Zm-64.919 290.211c-2.748 0-5.203-1.939-5.792-4.737-.589-2.699-10.996-40.396-18.04-65.65l-54.93-84.646c-16.69-16.418-35.441-34.236-40.473-38.163-2.896-.687-8.32-4.859-28.692-25.769a5.969 5.969 0 0 1-1.62-5.006 5.877 5.877 0 0 1 2.995-4.295l47.075-25.769a5.919 5.919 0 0 1 8.026 2.331 5.917 5.917 0 0 1-2.332 8.025l-40.203 22.015c7.363 7.387 14.8 14.529 17.672 16.737 2.283.491 4.737 2.504 10.407 7.608 3.755 3.363 8.786 8.075 14.972 13.989a2296.442 2296.442 0 0 1 20.96 20.321c.295.295.589.638.81 1.007l55.789 85.946c.319.515.564 1.055.736 1.62 2.97 10.676 17.819 64.03 18.482 67.343a5.898 5.898 0 0 1-4.639 6.946 6.415 6.415 0 0 1-1.153.122l-.05.025ZM311.554 551.753s-.049.073-.073.122c.024-.049.049-.073.073-.122Zm135.753-374.194a5.895 5.895 0 0 1-5.523-3.828c-2.037-5.449-10.112-77.676-13.499-108.477a5.964 5.964 0 0 1 1.276-4.368 5.832 5.832 0 0 1 4.001-2.16l58.219-5.89L477.619-5.55a5.933 5.933 0 0 1 4.344-7.141 5.933 5.933 0 0 1 7.142 4.344l15.758 64.963a5.968 5.968 0 0 1-.909 4.81 5.867 5.867 0 0 1-4.221 2.454l-59.029 5.964c4.222 38.187 10.751 94.511 12.223 99.862 1.031 3.018-.515 6.331-3.51 7.46a6.079 6.079 0 0 1-2.061.369l-.049.024Zm5.522-7.976s0 .074.025.098c0-.024 0-.074-.025-.098ZM160.067 91.956c-3.265 3.46-6.48 6.97-9.622 10.529l21.869 19.192s4.835-4.983 11.609-12.075c-8.197-5.522-16.1-11.437-23.856-17.646Zm-.294 186.716c-4.492 1.596-8.959 3.24-13.377 4.982l10.677 27.07s6.578-2.233 15.856-5.423c-4.762-8.639-9.082-17.524-13.156-26.604v-.025Zm67.643-216.044c-.442-.22-8.787-7.73-19.611-17.547-6.528 6.258-13.131 12.491-19.684 18.799 7.192 6.307 14.309 12.59 21.525 18.676 10.137-10.798 18.261-19.658 17.746-19.928h.024Zm-30.828 23.634c-5.841-4.638-11.364-9.448-16.714-14.357a777.011 777.011 0 0 0-16.175 16.272 170.12 170.12 0 0 0 7.314 7.264 176.567 176.567 0 0 0 14.923 12.099 6511.162 6511.162 0 0 0 16.224-17.007 150.83 150.83 0 0 1-5.547-4.27h-.025ZM155.503 48.64c-5.866-5.67-11.782-11.266-17.942-16.665l-14.26 16.026c6.504 4.344 12.223 9.547 17.647 15.143a311.331 311.331 0 0 0 14.53-14.505h.025Zm9.645 9.35c-6.578 3.215-12.714 7.019-18.531 11.215 4.713 5.203 9.327 10.603 14.162 15.855 5.253-5.473 10.53-10.848 15.782-16.198a969.729 969.729 0 0 1-11.413-10.872Zm15.366-37.795c-13.156-12-23.956-21.891-23.956-21.891l-25.599 24.272s21.942 13.474 28.398 17.474c6.847-6.872 13.204-14.946 21.157-19.855Zm22.899 20.885c-4.418-4-9.081-8.27-13.695-12.467-8.247 4.982-15.979 10.578-22.458 17.327 5.866 4.859 11.609 9.816 17.303 14.774 6.357-6.504 12.665-13.007 18.875-19.634h-.025Zm-86.469 14.112-8.934 10.062 15.389 13.523a611.52 611.52 0 0 0 10.284-8.958c-5.032-4.344-10.063-8.713-15.168-13.105-.516-.516-1.031-1.031-1.571-1.522Zm22.409 19.511c-3.584 2.847-7.069 5.817-10.505 8.86l18.236 16.001a781.215 781.215 0 0 1 9.621-10.283c-5.841-4.737-11.609-9.62-17.377-14.578h.025Zm258.473 71.491c.172 4.565.491 9.13.908 13.695l23.71-5.203a722.498 722.498 0 0 1-2.577-13.867c-7.265 1.89-14.629 3.633-22.041 5.351v.024Z"/><path d="M454.916 83.195c.172 4.564.491 9.13.908 13.694l23.71-5.203a721.712 721.712 0 0 1-2.577-13.866c-7.265 1.89-14.629 3.632-22.041 5.35v.025Zm-14.432 135.177c.172 4.565.491 9.13.908 13.695l23.71-5.203a723.842 723.842 0 0 1-2.577-13.866c-7.265 1.889-14.628 3.632-22.041 5.35v.024Zm-59.642 141.805c4.467.932 8.983 1.718 13.499 2.43l.712-24.248c-4.713-.245-9.401-.54-14.064-.859.074 7.51 0 15.069-.147 22.677Z"/></g></g><defs><clipPath id="a"><path fill="#fff" d="M0 0h570v510H0z"/></clipPath><clipPath id="b"><path fill="#fff" d="M-18-169h607V915H-18z"/></clipPath></defs></svg>