<svg xmlns="http://www.w3.org/2000/svg" width="140" height="146" fill="none"><path fill="#202020" d="M102.168 5.668c1.993-.158.902-.462 1.305-.72 2.365-.31 1.121.192 1.947.324 1.473-.228 2.584-.68 3.69-.76.087.055.305.06.061.161 1.545-.44 4.653-.405 6.447-.948.138.025.21.05.245.076-.31-.172-.377-.365-.326-.512.892-.081 1.636-.386 1.993-.158-.545.041-.586.148-.836.249l.928-.188c.871.295-1.264.234-1.244.508 1.815-.274 3.915-.756 5.317-.771.321.334-3.258.395-1.367.558l-2.171.045c1.702.426-1.315.071.255.548 2.854-.137 3.165-.451 6.014-.583.622-.254-.234-.28.388-.528.999-.172 1.702-.223 2.242-.208.132.005.26.01.372.02a.605.605 0 0 1 .138.056c.076.04.127.092.158.142a.5.5 0 0 1 .056.147l.005.03-.015.057c-.005.03-.016.06-.021.09a.275.275 0 0 0 .016.158c.01.025.03.05.056.081.05.147.112.31.184.482.402.69.922.878 1.126 2.988l-.551-.614c.54 2.683.897 1.41 1.213 4.276-.26-.467-.566-2.085-.53-1.669.056 1.887.5 1.243.775 2.648l-.301.36c.311 1.425.683 2.916 1.04 4.448.367 1.532.734 3.104 1.03 4.697-.138-.157-.342-.685-.321.076.876 3.987 1.34 8.602 1.681 12.528.174.482.352.964.515 1.446.041.345-.056.66-.163.294.082 1.537.209.05.423.766.133.862-.031 1.167-.193.629.637 2.643 1.503 7.588 1.482 10.454l-.152-.543c.102 2.222.881 2.43.795 4.51l-.092-.386c.199 2.404.408 4.93.602 7.319.086 1.192.178 2.353.209 3.444a34.9 34.9 0 0 1-.046 3.044c.489.674.096 4.767.713 5.046-.198 2.764-.342 1.984-.397 5.859.02 1.034.438 1.531.535 2.81l-.327.04.388 1.73-.372.933.112 1.197c.01-.477.123-1.02.219-.948.204 1.87-.142 4.575-.311 4.625l.331 4.434c-.132-.097-.188-.843-.279-1.426.356 2.364-.332.431-.021 2.602.076-.29.193.157.26.208-.199 1.08-.204 3.546-.122 5.367l-.224-.35a155.701 155.701 0 0 0-.036 5.158c.01 1.786-.016 3.617-.062 5.458.143-1.319.525-1.005.536.08l-.357.421c.194.705.163-1.126.382.321-.097 1.374-.433.912-.509.116l.05 1.678c-.107.097-.147-.298-.275-.405.183.695-.454 2.871-.142 3.875l-.107.092c-.199 3.677-.189 5.345-.419 8.333.291.081.133 1.243.291 2.156-.311 2.186-.795 4.59-1.157 7.192-.016.233-.025.416-.031.558 0 .066-.004.152 0 .167l.015.051c.026.061.052.086.088.101.061.036.142-.015.188.239-.133-.036-.204.223-.322.274-.259-.117-.351-.167-.213-.248a2.631 2.631 0 0 0-.275-.031l-.072-.005-.249-.031c-.164-.02-.327-.04-.48-.056-.612-.05-1.172-.111-1.743-.131-1.157-.061-2.416-.086-4.47-.046.444.127.938.188.678.274-.744.026-1.687-.162-1.575-.289l.199-.021c-4.598.259-10.622-.786-14.261-.075l.203-.036-3.771.457c-1.743.035 1.034-.254-.26-.361-4.052.68-6.448.295-9.776.843-.663-.153-1.57-.188-2.615-.158-1.04.041-2.217.158-3.425.279-2.41.244-4.929.543-6.697.457l.219.167c-.887.269-1.1-.005-1.774.015.107.137.994.076.443.233-7.624.928-15.795 1.284-23.639 1.984-2.864.274-1.514 1.146-5.168 1.115l.983-.466c-5.718 1.09-11.799 1.39-17.39 2.491.326-.123.32-.229.871-.3-1.223-.106-4.403.579-4.398.786-.882.096-.23-.157-.785-.188-1.218.011-2.951.741-3.624.579-.112-.026.32-.127.54-.178-.76.229-3.629.487-2.844.67-2.136.172-4.021.725-5.734.817-1.045.486-3.64.415-3.914.928.035-.249-.903-.193-2.019-.015-.555.086-1.157.213-1.697.334-.27.061-.525.127-.754.193-.046.015-.138.036-.143.046l-.046.025a.903.903 0 0 1-.092.056c.077-.087-.015-.107-.066-.147-.061-.036-.066-.086.02-.203a.462.462 0 0 0-.102.03.397.397 0 0 0-.117-.167c-.03-.036-.061-.031-.107-.086-.046-.071-.092-.087-.137-.025.295-2.867-1.02-5.595-.444-7.249a442.517 442.517 0 0 1-1.815-12.731c.495.101.495 4.494.98 4.271-.582-3.845-1.214-6.031-1.479-9.871-.036-.999.265.543.377.868-.58-3.84-.698-7.467-1.3-10.87.046.005.133.37.204.715-.081-.675-.086-1.582-.295-1.481l.122.654c-.209 1.111-.923-2.622-1.106-2.728.734 1.085-.178-3.409.79-1.659-.087-.441-.245-.989-.377-.873-.026-.664.04-.882.275-.228-.357-2.414-.505-1.526-.718-3.722.107-.006.188.436.336.648-.316-1.09-.632-2.185-.729-4.052.076.107.138-.117.189.436C9.572 91.19 8.833 89 8.685 85.483c.56.984.03-1.202.408-1.43l-.306-1.867-.117.771c-.158-1.648-.591-3.073-.602-4.504l.286 1.208-.382-3.079.025 1.76c-.367-1.649-.484.228-.591-1.973.086.44-.158-1.649-.01-2.531v.005c-.21-.802-.423-1.628-.444-2.856.097-.33.464.213.525-.005-.408-.77-.474-3.85-.927-4.829.117.33.326.33.356.213l-.336-.649c.01-.771.04-.888.22-.78-.18-2.298-.429.775-.485-1.969.04.213.071.107.158.548-.158-2.744-.693-5.27-.81-7.796.326-.781.316 2.186.565 1.303-.433-3.616-1.223-7.456-1.478-10.97l.02.659c-.611-.431.02-2.638-.423-4.388.087.431.367.538.296.426-.148-2.409-.627-4.894-1.162-8.516l.189.436c-.01-1.43-.296-3.733-.383-5.27-.188-.44-.255-1.319-.407-.766.351-4.793-1.336-8.947-1.066-13.197.051.502.245 1.181.204.78l-.244-1.775c-.046-.35-.067-.44-.097-.644l-.092-.563c-.122-.005-.153.061-.173.168-.02.116-.026.268-.097.563-.123-.249-.255-.776-.362-1.385.255-.046.55-.081.84-.107-.733.142-.57.229-.254.3.326.066.795.121 1.03.167-.097-.066.06-.162.015-.238 1.886.279.265-.518 2.839-.442l-.122.137c.953-.147 1.82-.39 2.854-.44.454.248-1.01.217-1.055.456 1.447-.137 2.813-.777 4.149-.604-.607.132-1.494.208-2.105.335 1.457.213 1.615.111 2.68.076h-.106l2.467-.056-.632-.035c1.753-.888 3.68-.447 6.085-1.132-2.334.655-.372.3-.525.635.632.035 1.59.055 1.325.167 1.132-.355 1.947.04 3.543-.472.081.097 1.238-.096.999.188 1.493-.208-.372-.147-.255-.29 2.283-.547 5.474-.03 8.762-.79 2.854-.442 3.353-.832 6.004-1.228.912.091-.704.436-.704.436 1.463.03 2.554-.091 3.91-.324-.27.111.02.167.448.243 1.096-.122.704-.436 2.161-.406-.24.137-.54.345-1.06.507 1.285-.202 2.544-.502 3.874-.71.372.147-.785.34-1.244.497 1.499-.208 3.884-.492 4.322-.811l-.973-.02c.545-.061.3.218-.097.304-1.269.33-1.865.056-1.947-.04l.948-.148c-1.03-.522-3.818.421-5.739.543l.764-.507-1.936.527c-.428-.08-.734-.299.209-.446-1.392-.102-1.203.259-2.406.117-.133-.026-.077-.051.04-.082l-1.33.244c.255-.117-.25-.29.581-.3-2.43-.05-3.858.655-4.796.401l.199-.045c-3.333.43-.296.35-2.773.938l-1.758-.654-.3.35c-.348.015-1.03.05-.918-.092-1.264.33.229.122-.5.39-1.687-.151-4.572.523-4.99.042-.576.294 1.606.055-.153.375-.55-.507-2.043.269-3.583.142.444-.325 1.891-.294.352-.421-.877.558-2.966.142-4.236.345-.025.39-2.772.395-4.908.7.127-.142-4.062.132-6.07.157l.05-.071c-.382.421-2.288.507-4.235.756-.158-.223.092-.335 1.233-.533L0 11.774l.015.132c.184.579.316 1.228.474 2.394-.107-.116-.224-.299-.341-.476l.056.502.046.35.107.705c.076.477.158.959.24 1.456.157.999.3 2.069.32 3.281.286.107.566-1.983 1 .538-.138.106-.378.228-.505-.431.04.218.199.766.178 1.207l-.346-.99c0 1.107.265.554.326 1.431-.21.005-.087.665-.265.553-.026-.203.025-.756-.087-1.08.061.989.056 2.196-.066 2.602.112-.097.28-.026.382.69.199 1.866-.188.664-.188 1.765.188.436.158 1.643.474 1.643.05.548-.082.66-.148.883.234.953.49 4.509.713 3.388l-.005-.254c.01.046.02.102.03.157v-.01.01c.628 3.135.475 6.594.923 9.724l-.107.005c.306 1.861.485 4.17.841 5.483.056.553-.06 1.329-.209 1.1.22 1.426.357 1.578.388 3.663-.326-1.425-.112.512-.28-1.466.096 1.871-.031 2.308.453 4.28-.336-.654-.199 1.436-.03 2.314l.06-1.324c.138.994.2 1.866.266 2.749l-.398-.441c-.05 3.854 1.412 6.801.984 9.773.346.985-.03-2.09.346-1.212.128 1.76-.198 3.637-.142 4.185.04 2.42.739 2.191.85 4.718.093-.336.398-.67.704 1.197.128 1.76-.31 2.206-.525 1.11-.05-.421-.03-.629.01-.614-.101-.563-.229-1.303-.295-.593l.148.213c-.041.883.209 3.297-.051 2.75.25 1.313.265.547.229-.442.04 2.267.342 3.515.449 5.843.03-.375.147-.73.183-.36.184 3.413.387 1.471.673 3.768-.061 1.33-.505-.426-.112 1.877.01 1.43-.306.335-.464-.218.454 2.09.234 3.961.306 5.174l-.214-1.1c.127.658.178 1.201.234 1.76l.189-.66c.02.66.076 1.212-.03 1.207.228.654.366-.558.723.756-.04.882.403 2.637.097 2.972-.158-2.75-.306.335-.592-1.978.087.441.138.989.158 1.648-.025.102-.076-.086-.117-.264-.035 2.648.495 1.167.76 3.886-.225-.325-.296.664-.21 1.106-.106-1.096.26-.553.505.436.026 1.754.296 1.881.372 2.794l-.035-1.049c.224.334.285 1.206.464 2.414-.138.116-.21-1.091-.23-.654.464 1.313-.04 3.078.367 4.935-.04.882-.346.117-.357.892.454 2.08-.03 2.309.388 4.499.188-.664.117-.765.52.767l-.54-3.622.6 2.298c-.106-1.101-.387-2.303-.412-2.962.316 1.09.245.983.398.436-.23 1.542.514 2.957.433 4.722l-.632.01c-.02 2.638.78 4.611.963 8.014v-1.101c.296.432.245 2.09.454 3.181-.22-.081-.23.613-.311 1.095.148-.071.234 2.486.678 2.749l-.128 1.542c.158 2.749.907 3.069 1.096 5.707-.306-.772-.336.441-.673-1.309.087.877.128 1.674.27 1.674-.03.101.036.644.123 1.192.086.532.188 1.151.285 1.739.704-.167 1.305-.289 1.718-.289.285-.096.469-.213.734-.324.066-.026.137-.051.214-.087.061-.025.127-.05.199-.071a4.16 4.16 0 0 1 .586-.127c.112.026.015.102.015.102-.015-.102 1.509-.401.612-.482 2.798.173 7.528-1.273 9.964-1.065 1.901-.355 4.2-.756 5.938-1.014-.102.076.01.106-.321.127 2.426-.148 1.392-.807 4.154-.964 1.442.147-1.427.38-.54.385.474.634 3.282-.547 5.178-.38l-.438.096c1.437.056 3.394-.715 5.703-.943 0 0-.102.076 0 .106 1.53-.542 4.49-1.034 6.698-1.384-.658.35-.99.258-.535.481.988-.156-.342-.4 1.63-.71.663.071 2.106.031 2.33.3l-1.866.238c1.004.264 2.416-.305 3.41-.345l-.107.178c2.86-.376 2.855-.791 5.938-1.111l-.331-.086c1.636-.599 1.437.075 3.083-.411l.556.36c1.1-.218 3.848-.822 5.836-1.106-1.101.421-3.415.832-4.837 1.167 1.101-.112 3.741-.432 4.291-.695-.438.086-.988.248-1.432.228 1.315-.477 3.079-.807 5.281-1.024-.306.842 5.749-.376 7.4.116 1.928-.325 3.859-.487 5.872-.588 2.014-.102 4.108-.178 6.371-.386-1.656-.502 1.32-.116.995-.735 1.054-.117 1.457-.132 1.554-.096l3.226.162c.77.136-.993.213-.886.35 2.313-.107.988.197 2.527.284-.326-.213.786-.375 2.106-.365l-1.871-.193c3.211-.518 2.823.365 6.06-.122l-1.02.249c.832-.097 2.371-.163 3.905-.274 1.534-.117 3.063-.239 3.874-.528.295.066.693.234-.041.299 3.985-.03 8.884-.654 11.957-.177l-.306.142c.74-.005 1.3-.234 2.213-.015-.051.061-.306.137.03.173.393-.031 1.973-.127 2.916.081l-.842.09c.591.087 1.142.168 1.662.249.877.143 1.733.35 2.487.492.199-.928.311-1.877.413-2.724.067-.497.056-.659.072-.933l.03-.765c.026-1.02.061-2.045.148-3.211.474.066.959-2.993 1.162-4.52l.061.061c.459-4.55.189-7.755.194-11.97.637-2.592.519-8.846.836-13.04-.092.639-.362-.107-.403-.858.107-.984-.321-2.724.113-2.567l-.011.35c.423-.74.311-2.77.326-4.352l-.56-.258c.382-2.07.28-4.778.157-7.248-.142-2.47-.295-4.707.046-5.844-.157-.994-.203-2.231-.387-3.215l.306.04c-.015-1.385-.03-2.424-.066-3.54a64.33 64.33 0 0 0-.23-4.027l.255.684c-.096-1.927-1.014-2.383-1.142-4.154l.418-.563-.229-5.062c-.097-1.684-.204-3.368-.576-5 .071.05.209.136.281.674-.143-1.578-.291-6.133-.852-5.499.413-.08-.336-3.459-.718-5.24l.325.25c-.555-1.482-.641-1.517-1.019-3.627-.025-.508.179-.472.189.208-.061-1.694-.449-1.273-.556-3.323l.286.73c-.199-1.729-.286-1.577-.627-2.495-.27-1.065-.392-3.271-.163-3.565-.194-.208-.545-1.121-.617-2.146.082-.152.194.208.255.39-.24-2.906-1.004-4.22-1.035-6.238.092-.056.118-.193.118-.36.371 2.282.631 4.123.585 3.956.271-.04.026-1.897.633-.487-.22-.725-.541-1.704-.826-2.729-.296-1.02-.561-2.09-.647-2.997a.948.948 0 0 1 .05-.254l.062.183a5.776 5.776 0 0 0-.24-1.127 15.653 15.653 0 0 0-.183-1.5c.183-.255-.265-2.131-.423-3.05-.281.133-.454-1.075-.49.092-.005-.147.067.167.189.771.035.137.066.3.102.385-.01-.015-.025-.035-.036-.055.118.598.265 1.384.438 2.272-.28-.695-.545-1.43-.57-2.47a20.332 20.332 0 0 1-.709-1.187c.169-1.324-.081-3.779.102-4.164-.372-1.38-.728-3.013-1.136-4.51a29.281 29.281 0 0 0-.633-2.084c-.193-.523-.524-1.456-.764-1.867a4.632 4.632 0 0 1-.153-.618c-.143-.02-.27-.02-.362-.051-.194-.046-.306-.117-.509-.142.351-.056.734-.102 1.085-.142.128.264.189.578.275.72-.04-.142-.086-.294-.132-.451-.021-.082-.046-.158-.071-.244l-.016-.06c-.01-.016-.041 0-.061 0l-.137.014c-.368.041-.76.082-1.158.127-.356.04-.728.076-1.095.117-.27.03-.54.066-.8.096-1.04.132-1.922.284-2.096.492-2.049-.005 1.111-.456-1.676-.157l.367-.152c-5.551-.162-8.854 1.745-15.021 1.46.428.016.637.021.734.077-6.978.233-14.292 1.537-21.198 1.552-1.958.05-2.151.32-3.323.609l-.449-.284-2.003.537c-2.86.512-5.06-.36-8.67.457l.49.177c-1.315.071-4.144.477-3.945.213-.133.051-.413.259-.934.193l-.055-.162-3.196.558c-2.508.09.336-.695-3.313-.421-1.35.177-3.818.811-3.298.877.545-.035 1.407-.015 1.463.152l-1.233.193c-.184.512-1.091 1.096 1.977 1.182l2.095-.477.703.183-1.784.167c1.03.137 1.657-.112 2.36-.31.179.112.484.178.913.188l2.038-.644c.27.173-.902.462.505.451.958-.299-.974-.35.632-.634 1.035.137.754.345 1.926.056.18.112-.066.213-.534.31 1.045-.239 2.798-.3 3.323-.609 1.08.188 3.573-.37 3.506.101.321-.136 1.835-.522 2.809-.623-1.728.705 3.644-.274 3.226.365 1.275-.614 4.735-.624 7.04-1.096-.128.051-.378.152-.587.147 1.315-.07 1.707.051 2.559.076.132-.426 2.166-.695 3.246-1.04 1.641.264-.933.569-.398.909-.107-.33 2.763-.569 2.198-.802 1.248.142 1.07.03 1.733.32.172-.538 1.136-.183 2.13-.589 1.799.107.5.447 2.441.122.964.06-.759.39-.759.39zm29.73 15.475h-.005c-.076-.39-.137-.726-.178-.939.035.193.092.462.183.939zm.642 3.84a39.256 39.256 0 0 0-.254-1.67c.076-.151.208-.025.265.366-.097-.203-.015.715-.011 1.304zm.648-8.486c.153.603.132.816.086.913-.055-.29-.127-.624-.229-1.06-.015-.016-.036-.051-.051-.066a.53.53 0 0 1 .194.213z"/><path fill="#14CF93" d="m62.787 122.27 13.649-8.499-9.065-7.88-4.584 16.379z"/><path fill="#202020" d="M68.246 120.669c-.48-.34-.922-.736-1.364-1.129.922.97.11 1.784 1.364 1.129z"/><path fill="#202020" d="M66.791 120.983c.135-.072-.105-.355-.176-.559.105-.186.197.195.336.327.05-.145-.034-.487.046-.518.034.05.06.059.076.136-.034-.318.294-.2.244-.595a.3.3 0 0 1 .059.072 3.41 3.41 0 0 1-.253-.432c.055-.041 0-.273.135-.073-.038.014.004.105.02.178l.013-.128c.215.273-.025.155.093.383.067-.173.071-.51.206-.478.176.286-.16.232.1.423l-.201-.027c.353.404-.1.017.26.464.232-.028.127-.278.358-.305-.047-.191-.143-.237-.19-.428.106-.459.602.623.585.11-.055-.228-.236-.619.008-.505l.13.363c.198-.077-.151-.545.152-.436.037.154-.08.2-.034.223.26.191-.017-.246.08-.301l.176.287c.164-.164.26-.509.442-.691.033.095.046.213.147.273.189-.314.584-.314.937-.296l-.038-.318c.025-.009.105.091.105.154.151.037-.08-.168-.088-.295.046-.055.15.1.16.2.062-.328.251-.782.584-.619l.004.101c.197.013-.114-.628.147-.473v.063c.374-.082.596-.532 1.038-.291-.152-.4.399-.027.147-.554.315.145.31.268.655.286.08-.018-.071-.387-.016-.491l.142.268-.038-.355.231.287.043-.118c-.038.004-.13-.082-.169-.164.06-.196.396.005.475.141l.085-.205a.776.776 0 0 1 .121-.227c.059.109-.03.214-.016.296-.005-.087.033-.137.059-.137.024-.005.05.027.08.064.05.068.104.136.159-.069-.072-.036-.08-.163-.113-.218.218.082.525-.104.672-.287l.121.174c.454-.219.753-.582 1.185-.847-.273.055-.646-.145-.588-.222l.433.109c-.172-.127-.265.018-.416-.173.176-.064.56.086.592.187.017-.055.034-.109.047-.159.138.026.16.077.302.131-.088-.064.102-.086.282-.122.176-.037.349-.091.155-.178l.152.019c.306-.187.428-.319.567-.451a5.208 5.208 0 0 1-.361-.254c-.446-.019-.471-.123-.891-.192-.063-.168-.013-.413-.324-.645-.357-.128-.34.013-.613-.009.29-.078 0-.3.34-.242-.366-.263-.487-.354-1.046-.568-.047.096-.042.159-.139.187-.097-.028-.055-.187.05-.255h.038a.523.523 0 0 1-.374-.254c-.084-.128-.172-.319-.176-.432-.05-.26-.101-.497-.362-.378l.026-.009-.382.032c-.076-.123.171-.101.188-.291-.483.132-.336-.373-.697-.314.29-.728-.568-.418-.492-.978l-.092.15c-.156.091-.004-.136-.021-.2-.076.113-.038.178-.126.223-.572-.214-.77-1-1.135-1.519-.139-.182-.63.646-.593.128l.253-.21c-.286.01-.454-.141-.622-.295-.084-.078-.164-.159-.257-.219a.88.88 0 0 0-.15-.077c-.03-.014-.051-.014-.093-.027a.681.681 0 0 0-.139-.045c.076-.037.13-.114.19-.064.003-.31-.476-.424-.543-.232-.08-.096.05-.187.034-.328-.089-.259-.416.037-.412-.268 0-.05.054-.054.084-.05-.114.05-.39-.378-.357.009-.206-.346-.416-.196-.584-.555-.05.159-.14.032-.223-.068-.084-.1-.16-.173-.135.132-.059-.632-.474-.878-.52-.646-.005-.177-.173-.332-.194-.591-.168-.136-.277-.123-.134.3l-.021-.045c-.177-.237-.177.159-.177.454 0 .301.004.514-.227.155-.038.978-.067 1.651-.122 2.21-.336-.368.122-.587-.222-1.009-.03.745.206 1.254-.013 1.641-.088.091-.143-.164-.193-.254 0 .154-.017.286-.042.409-.013.064-.03.122-.047.182l-.042.14c-.042.142-.075.278-.004.446-.038-.014-.071-.054-.092-.091 0 .06-.093.105.092.159l-.033-.068c.29.005.495.391.634.451-.5-.265-.206.218-.828-.142a.36.36 0 0 0 .223.15c-.05.041-.126.032-.252-.068.046.223.26.219.206.387-.088-.032-.114-.078-.21-.127.147.145.298.286.18.404-.05-.027-.126-.031-.113-.077-.042.255.34.573.097.791-.362-.209-.152.051-.492-.045l.059.177.176-.004c-.042.127.168.318.03.396l-.11-.142-.004.26.164-.096c.135.186.425.127.286.264-.025-.046-.042.127-.257.127.089.1.181.2.072.268-.114-.008-.361-.141-.437-.15.26.155-.008.328.269.505a.914.914 0 0 0-.273-.114l.21.128c-.088.036-.126.031-.265-.023-.092.164.437.082.198.237-.013-.023-.05-.028-.076-.073-.156.182.03.459-.139.618-.353-.055-.033-.2-.336-.227-.017.3.235.714.08.964l.05-.037c.463.196-.29.128-.105.337-.025-.045-.252-.132-.201-.105-.13.164.008.419.075.75l-.113-.077c-.139.073-.143.269-.235.369.113.077.07.136.26.155-.794.136.172.822-.496.955.008-.041-.08-.128-.088-.096l.034.313c.214.046.134.005.31 0 .114.078.185.187.164.256-.1-.169-.332-.11-.462-.092.067.014.13.055.198.068-.408.024.407.164.105.278l-.105-.046c.033.091.16.21.105.278-.248-.046-.089-.114-.286-.187-.017.119.39.369.122.391-.055-.068-.034-.136-.088-.209-.311.018-.244.055-.311.123l.008-.004-.18.145.087-.023c.585.346.034.323.387.646-.332-.309-.214-.104-.479-.209-.088.023-.193.068-.265.023.194.159-.214.091.072.323-.088-.023-.034.09-.248 0 .033.136.16.022.265.068.248.277-.48.3-.143.691.105.277.386.414.475.668-.16.023-.303-.163-.303-.163-.16.068-.16.163-.088.3-.072-.046-.139-.046-.248-.046 0 .092.302.164.143.232-.093-.05-.24-.127-.328-.2.05.128.185.277.235.41-.16-.023-.214-.137-.302-.21.033.141.05.346.281.464l.105-.045c0 .045-.214-.046-.248-.091-.16-.164.122-.118.215-.091l.033.091c.534.095 0-.323.072-.46l.353.187-.265-.255c.105 0 .32.046.353.137.214-.046-.105-.137.126-.159.034 0 .05.009.063.027l-.08-.141c.072.045.27.068.194.114.268-.114-.194-.391.109-.369l.017.023c-.05-.301-.265-.114-.53-.414l.71.091-.264-.114c.016-.023.054-.068.16-.023-.16-.159-.123-.022-.282-.136.286-.045-.017-.391.424-.277-.193-.114-.193.068-.298-.114.479.114-.034-.187.21-.232.231.114.071.187.32.137-.387-.205.155-.201.104-.324-.323-.113-.075-.258-.134-.458.105.045.265-.255.428-.369l.055.023c-.32-.137-.214-.277-.248-.414.193.068.265.118.336.209l.03-.109c-.097-.059-.143-.114-.16-.196l.235.11c.03-.15-.206-.387.009-.519-.227-.086-.677-.063-.773-.309.126.032.34.095.374.164-.013-.023-.084-.096-.026-.11l.185.146c.114-.055-.16-.1-.122-.163.177.058.14-.01.278.045.012.022-.088.036-.03.082.055-.069.185-.123.328-.11-.1-.027-.235-.077-.244-.14.03-.15.227.022.34-.037-.113-.077.043-.127-.222-.214.013-.041.139-.009.214 0-.096-.113.067-.363-.24-.368l-.024.014c-.005-.005-.005-.009-.009-.018-.193-.333.294-.464.248-.742l.088.028c-.058-.178.034-.346-.126-.509.013-.041.19-.051.29.004-.033-.132-.13-.178.06-.291.12.164.146.004.079.15.118-.119.269-.105.071-.341.21.127.316-.014.27-.105l-.19.05c-.012-.086.03-.15.067-.213l.286.136c.446-.177-.462-.737.206-.764-.185-.146-.193.114-.416-.036.08-.123.546-.123.559-.168.218-.133-.387-.319-.219-.478-.113-.009-.403-.082-.462-.259.076-.123.492-.023.55.095 0 .036-.037.041-.075.027.025.055.055.132.185.114l-.1-.054c.125-.032.167-.223.331-.123-.071-.137-.16-.1-.24-.046.202-.123.08-.273.236-.418-.067.009-.198-.004-.19-.032.207-.223-.167-.182-.163-.378.189-.05.374.164.29-.058.138-.073.285.068.361.14-.16-.231.223-.263.286-.345l.063.114c-.038-.069-.021-.109-.008-.155l-.227-.023c.05-.036.063-.082.15-.05-.125-.1-.365-.077-.524-.241.126-.032-.06-.245.23-.173-.155.182.29.068.282.264-.025-.045-.008-.086.042-.127a.097.097 0 0 1 .068.045c.306-.118-.29-.2-.227-.409.15.077.315.05.29.005-.026.082-.278-.046-.374-.164.16-.096-.05-.178-.017-.246l-.08.064c-.151-.082-.11-.141-.135-.25.127.031.06.113.127.1-.127-.1-.034-.132.067-.168.1-.032.218-.091.134-.146.114.009.294.114.37.123-.18-.15.219.072.067-.055-.197-.132-.155-.077-.323-.277.033.082.067.15.105.209a2.094 2.094 0 0 1-.265-.264c-.017.051.097.178.055.182-.152-.131-.101-.109-.278-.168.164.041.126-.014.084-.096-.042-.077-.092-.181.017-.149l.462.404c.114.059.06-.013.005-.127-.06-.109-.114-.268-.047-.251l-.08-.067c-.155-.26 0-.119-.046-.273.126.232.181.291.26.427-.092-.182.026-.041-.205-.586.059.095.113.195.168.299.08.087-.277-.968-.193-1.023.096.4.18.591.24.905.008-.022.033.014-.034-.222l.004.009c.059.186-.046-.387.055-.064-.022-.132-.093-.459-.047-.396.017.069.03.155.03.155-.034-.155.02-.15-.08-.523.155.532.21.564.281.596.068.027.156.063.177.423a.26.26 0 0 1 .231.013c-.021.059-.03.105-.034.073.017.254.236-.528.294-.214-.08.346-.13.109-.142.255-.122.314-.097.305-.042.282.054-.028.138-.069.067.114a.052.052 0 0 0-.038.018c-.067.227.34-.027.441.123 0 0-.037.04-.059.077.286-.182.526-.118.706-.077-.189.168-.138.054-.26.282.08.022.223-.342.382-.301-.042.141-.03.31-.18.537l-.118-.082c-.151.332.147.114.172.209l-.096.119c.197.104.428-.205.592-.028l.05-.109c.324-.222-.046.246.223.1l-.201.337c.121-.019.45-.105.609-.064-.236.173-.458.177-.647.241.063.059.235.164.382.041-.046.009-.139.054-.126-.013.26-.178.454-.21.576-.092-.467.587.222.442-.03.992.391-.027.383.482.673.678.252-.551.088.054.424-.447.084.023.1.051.084.087l-.025.45c-.059.178-.139.055-.21.168.109.155-.093.255-.101.46.11-.187.227-.209.256-.073l.055-.318c.378-.096-.135.546.244.454l-.173.1c.164-.004.357.314.74.009-.025.073-.097.223-.168.219a.36.36 0 0 0 .21.123l.067.013c.013-.004.025-.013.038-.018a.41.41 0 0 1 .08-.032c.105-.041.227-.032.13.082l-.135.077c.047-.018.274-.127.156-.036a.987.987 0 0 0-.147.077c.05-.022.29-.086.223-.032l-.19.055c-.075.059.043.032.24.018.193-.013.458-.013.58.028-.584.063-.744.109-.845.118h-.096c-.017.009.038.013.138.032.173.031.48.113.551.204-.357-.059-.45-.059-.517-.045-.063.009-.11.041-.243-.032.075.045.281.223.293.269-.084-.051.143.267-.13-.032h.013c-.29-.282-.223-.2-.252-.196l.268.45c-.07-.068-.092-.132-.163-.145a.25.25 0 0 0-.156 0c-.088.031-.155.118-.218.2-.122.168-.227.336-.458.082-.005.154-.084.204-.089.359l-.126-.25c-.214.045-.319.072-.508.268l-.05-.205c-.135.06.218.815.113.901l-.231-.351c-.215.142-.605-.049-.643.419-.025-.055-.076-.168-.046-.205-.11.055-.53-.004-.223.478-.176-.332-.244.104-.282.323l-.109-.255c.067.373.105.459.013.632-.05-.014-.13-.177-.055-.141-.176-.059.038.282-.164.237l-.033-.187c-.122.05-.072.127-.034.35-.021.141-.248.069-.378-.141.055.146.088.364-.013.341-.054-.077-.054-.145-.059-.177-.277-.05-.13.459-.386.296a.544.544 0 0 0-.097-.132c.151-.087.282-.146.278-.123-.118-.227-.261-.191-.328-.56-.009.232.02.701-.152.669a.457.457 0 0 1-.054-.068v-.032c-.038-.004-.05.032-.055.082-.059-.014-.096-.028-.134-.009-.114-.178-.194-.014-.257.013.135.246.034.255.215.41-.017-.014-.005-.037.03-.073.003-.014.012-.023.012-.041l.008.023c.038-.032.084-.069.143-.11.017.155.025.292-.113.196.054.178.105.364.126.451-.265-.292-.521-.383-.656-.578-.11.25-.386.359-.256.891-.021.091-.13-.096-.19-.154.005-.064.047-.082.026-.155-.042.182-.286.237-.139.577-.21-.063-.084-.345-.235-.177l-.03-.114c-.63-.295-.142 1.183-.89.764.05.023.071.037.105.087-.605-.014-.786.846-1.475.659-.177-.013-.08.2-.076.405l-.168-.25.03.386c-.068.342-.669-.45-.681.119l.126.159c-.101.018-.215.273-.307.059.008.036.071.205-.013.132l-.075-.137-.084.369c-.215 0-.265-.564-.517-.446-.059.109-.038.56.046.632.038-.014.135.032.21.169l-.042.122c.202.419.357.873.706 1.037l.004-.336.147.172-.109.082c.164.146.118-.045.105-.186a.54.54 0 0 0 .172.182l-.071-.473c.1.15.105.354.244.386-.034-.218-.248-.322-.206-.505.164.146.223.31.218.101a.379.379 0 0 1 .08.241c.004-.169.156-.164.076-.405.189.186.202-.205.399.186-.025-.104-.038-.377.017-.432.13.533.252-.118.483.396-.134-.469.21-.373.24-.701.008.037.029.114.004.105.105-.018.193.091.29.137-.168-.35-.08-.51-.118-.769.277.268.151.441.349.741-.151-.277.034-.391-.122-.6.19.155.122.059.311.319-.214-.437.038-.119-.038-.424.227.141.244.387.299.178.155.1.121.318.121.318zm2.623-2.601c0 .005.004.005.004.005l-.055.054a.522.522 0 0 1 .05-.059zm.252-.159a.325.325 0 0 0-.114.059c-.054-.082-.088-.173-.063-.187.013.064.101.077.177.128zm-1.438-1.378c.022-.059.06-.019.093.027-.017.019-.034.036-.055.073l.013.032c-.021-.05-.042-.096-.05-.132z"/><path fill="#fff" d="m107.104 58.118-40.222 49.077 8.914 6.886 40.223-49.077-8.915-6.886z"/><path fill="#202020" d="M68.232 105.289c.05-.296-.007-.7-.55-.763.15.395-.079.359.128.804-.164.193-.5.229-.622.126.029.112-.421.215-.278.435.593-.059.958-.332 1.065-.75.171-.018.2.095.257.148z"/><path fill="#202020" d="M78.082 114.053c.178-.213.287-.381.305-.461a.18.18 0 0 0-.068-.151c-.086-.079-.232-.133-.278-.248.346-.589.414-.075.709-.142.19-.39.127-.847.34-1.086.063.018.118-.013.132.089.05-.528.83-1.042.867-1.672a.226.226 0 0 1 .113.005.986.986 0 0 1-.45-.249c.155-.199.114-.509.368-.434-.104.115-.036.186-.022.288l.086-.27c.427.026-.136.354.068.514.24-.474.395-1.122.726-1.37.323.142-.499.794.077.568l-.494.399c.721-.04-.268.266.458.283.59-.571.44-.811 1.03-1.379-.031-.257-.259-.124-.29-.381.463-1.104 1.248-.182 1.425-1.113-.04-.31-.327-.638.237-.966l.172.394c.526-.585-.15-.687.571-1.166.028.209-.29.559-.176.492.576-.226.068-.425.326-.745l.322.142c.487-.683.877-1.547 1.417-2.305.045.102.031.293.25.186.603-1.011 1.61-1.911 2.482-2.664l.04-.514c.07-.076.223-.063.2.057.368-.275-.13-.133-.09-.368.14-.209.34-.155.313.022.295-.754.976-2.044 1.738-2.487l-.031.177c.494-.421-.019-.926.567-1.215l-.032.12c.976-.993 1.73-2.345 2.742-2.89-.21-.418 1.012-.945.603-1.375.731-.434.668-.195 1.526-.935.208-.213-.01-.568.172-.892l.25.182.058-.585.459.022.154-.315c-.1.093-.295.142-.349.071.231-.5.998-.887 1.13-.798l.599-1.148c.082.098-.023.288-.064.47.182-.718.336.102.5-.554-.11.022-.119-.147-.155-.195.346-.13.79-.674 1.058-1.127l.105.209c.64-.7 1.175-1.605 1.847-2.425-.318.235-.554-.058-.386-.324l.336.102c-.032-.28-.304.177-.236-.293.281-.284.458.022.399.262l.214-.444c.095.04.063.155.145.257-.037-.279.78-.443.685-.877l.095.04c.672-.82.885-1.26 1.417-1.942-.214-.186.049-.408.036-.75.472-.434 1.089-.846 1.552-1.453.227-.501-.091-.266-.068-.56.227.125.69-.478.585-.061.545-.737.7-.94 1.267-1.964-.164.03-.286.115-.309.004.1-.19.386-.306.463-.208l-.014.057c.518-1.245 2.488-1.87 2.719-3.001l-.013.062.458-1.002c.35-.355-.036.35.322.16.395-1.163 1.208-1.384 1.584-2.297.531-.053.935-.572 1.335-1.135.199-.28.395-.572.608-.825a2.79 2.79 0 0 1 .327-.34c.123-.108.199-.143.435-.338l-.213-.018c.141-.448.44-.381.717-.656-.176-.004-.476.332-.39.075a33.95 33.95 0 0 1 1.189-1.547 61.71 61.71 0 0 1-1.843-1.499l-.231-.2-.091-.079-.064-.057-.258-.24-.513-.488c-.681-.656-1.353-1.33-2.043-1.95-.621-.541-.948.42-1.497-.541l.44-.076c-.662-.301-1.244-.727-1.811-1.17-.395-.31-.794-.625-1.185-.936a39.857 39.857 0 0 0-1.493-1.112c-.272.372-.536.749-.776 1.121.068-.204.031-.319.213-.54-.472.199-1.557 1.892-1.229 1.8-.178.181-.178-.063-.355-.005-.326.177-.3.856-.604.851-.049 0 0-.124.024-.182-.051.244-.681.79-.328.794-.485.39-.635.975-1.071 1.25.046.435-.776.714-.49 1.06-.331-.31-.962.603-1.035 1.028-.027-.181-.322.173-.377-.062-.272.346-.458.705-.226.79-.935.292-.681 1.525-1.517 1.454a39.423 39.423 0 0 1-1.915 3.166c-.331-.311.78-1.034.377-1.282-.554.976-.653 1.712-1.434 2.496-.227.182-.05-.244-.05-.368-.554.975-1.39 1.64-1.816 2.554-.031-.026 0-.137.036-.24-.113.16-.34.31-.163.422l.077-.182c.431-.058 0 .98.105 1.104-.254-.616-.731.665-.985-.195-.05.124-.077.306.05.368-.15.124-.254.12-.254-.125-.354.608-.023.55-.427 1.038-.077-.062-.028-.186-.077-.306-.05.368-.1.736-.504 1.096-.027-.063-.127-.063-.027-.182-.554.727-.581 1.53-1.362 2.194-.154-.497-.327.177-.658-.009l-.254.488.28-.058c-.303.364-.353.856-.707 1.096l.1-.368-.504.731.432-.301c-.15.487.403.248-.078.673.05-.124-.304.364-.63.421-.055.253-.11.52-.404.732-.15-.004-.282-.31-.382-.315.1.373-.631.914-.553 1.344 0-.124-.15-.248-.205-.248l.078.305c-.205.12-.255.12-.355 0-.453.484.504.129-.15.612.023-.062-.027-.062.023-.182-.581.546-.835 1.277-1.388 1.76-.432-.066.326-.545-.078-.55-.603.852-1.008 1.952-1.715 2.678l.15-.119c.33.434-.682.421-.809.97.05-.119-.127-.305-.104-.243-.504.484-.79 1.175-1.321 2.088l-.027-.186c-.354.24-.731.79-1.058 1.09.023.187-.15.369.1.369-1.47.576-1.307 2.261-2.573 2.797.09-.11.122-.337.05-.252l-.55.873c.232.08.196-.017.473-.075.027.186-.073.474-.232.669.172-.452-.295-.226-.522-.15.077.017.095.119.163.15-.662.164.309.355-.372.754l-.072-.107c-.123.249-.155.546-.373.75-.285-.07.086-.302-.077-.453-.25.333-.117.945-.563 1.073.055-.181.213-.38.264-.563-.504.124-.472.209-.704.413l.023-.018-.554.457.182-.084c.222.829-.568.895-.65 1.72.087-.79-.126-.24-.33-.466-.177.089-.427.24-.446.129-.013.407-.499.31-.513.891-.09-.045-.231.266-.376.062-.209.381.2.026.272.128-.154.719-1.302.958-1.543 1.978-.372.749-.204 1.073-.558 1.76-.286.102-.145-.381-.145-.381-.377.235-.55.492-.709.865-.018-.116-.127-.094-.285-.071-.177.257.15.381-.227.611-.041-.119-.123-.297-.114-.483-.163.341-.25.736-.422 1.086-.2-.027-.059-.337-.059-.51-.213.381-.58.958-.454 1.224l.25-.156c-.091.129-.232-.079-.2-.199.068-.417.409-.355.5-.31l-.123.248c.626.133.617-.904.99-1.308l.18.435.082-.647c.16-.027.395.053.273.301.408-.177.104-.359.5-.483.05-.009.058.018.05.053l.144-.373c.023.111.273.129.078.276.626-.386.453-1.056.866-1.061l-.018.062c.495-.828-.181-.257-.013-1.032l.898.088-.181-.261c.072-.071.213-.208.286-.106.068-.413-.145-.031-.164-.32.518-.199.726-1.095 1.176-.878-.077-.275-.427.244-.236-.248.504.209.3-.51.762-.7.127.27-.245.5.222.31-.194-.483.614-.594.777-.931-.277-.235.381-.71.676-1.26.073.107.885-.775 1.353-1.134l.036.048c-.218-.31.209-.727.418-1.103.163.146.181.261.113.5l.254-.314c-.031-.146 0-.284.132-.51l.154.248c.327-.425.427-1.037 1.008-1.459-.177-.186-.908-.008-.58-.682.126.062.33.186.253.372.027-.058.05-.244.177-.306v.368c.281-.182-.05-.248.127-.43.154.124.227-.058.331.066-.027.063-.204.12-.204.244.21-.199.517-.39.704-.39-.105-.049-.21-.164-.1-.341.326-.426.304.004.581-.177-.028-.186.304-.364.077-.55.1-.12.227-.058.327-.058.072-.296.79-1.028.345-.98l-.064.045c.004-.014.014-.027.018-.045.345-.886 1.326-1.365 1.798-2.141l.077.062c.25-.487.703-.97.78-1.4.1-.125.382-.183.432-.059.2-.363.145-.47.649-.829-.127.426.208-.017-.168.408.404-.363.608-.359.758-.97.077.305.503-.12.608-.36l-.381.182c.15-.244.326-.425.504-.607l.177.31c1.011-.603.703-1.955 1.765-2.186 0-.368-.504.36-.558-.009.354-.363 1.062-.478 1.162-.598.58-.421.023-.798.58-1.282-.149 0-.458-.128-.204-.616.354-.364.786-.177.659.128-.068.102-.136.125-.164.094-.068.155-.163.35.064.275l-.055-.125c.255-.119.681-.665.731-.42.15-.364-.05-.245-.276-.067.544-.395.644-.78 1.152-1.228-.118.04-.29.03-.222-.05.735-.668.095-.47.472-1.014.38-.182.254.368.558-.24.354-.239.304.124.277.31.204-.61.835-.789 1.089-1.033l-.127.306c.078-.181.177-.3.277-.425l-.304-.005c.15-.119.254-.243.327-.181 0-.244-.404-.129-.332-.554.254-.12.382-.67.681-.546-.58.546.304.129-.077.674a.908.908 0 0 1 .304-.363c.046 0 .036.062.018.11.7-.412-.064-.487.436-1.086.077.187.381.067.431-.057-.2.243-.326-.067-.254-.373.426-.302.263-.483.44-.678l-.24.19c-.078-.186.1-.368.276-.673.127.062-.126.305 0 .243 0-.492.808-.483.986-1.028.254-.12.276.186.48.067.2-.612.609-.36.858-.972-.304-.004-.276.058-.176-.434l-.527.913.15-.731c-.205.243-.304.607-.454.731.05-.368.072-.306-.177-.31.553-.115.376-.794.885-1.033l.459.372c.68-.42.603-1.22 1.338-1.884l-.276.182c-.105-.244.353-.488.48-.79.136.143.318.036.5.005-.127-.076.463-.546.204-.856l.481-.177c.581-.545.123-1.042.653-1.587.028.31.355.129.155.616.164-.195.332-.35.227-.434.191-.04.232-.706.527-.772 0-.137-.141-.288.05-.5.049 0 .077.061.077.061-.077-.062.177-.426-.155-.368.976-.226 1.339-1.716 2.183-1.915.295-.47.668-1.024.972-1.419.027.062.077.062 0 .124.581-.421-.177-.678.481-1.161.127-.031.163.004.186.03.018.027.005.067-.027.13-.064.106-.159.212-.032.154.145.08.249.067.336.005.064-.031.072-.08.104-.155.041-.138.141-.404.277-.275l-.022.088c.063.045.09 0 .131-.11.082-.027.277-.116.468.07 0 0-.037.045-.041.09a.446.446 0 0 1 .281-.045c.136.03.318.11.477.186.326.155.653.346.935.506-.318.075-.314-.076-.382.199.25.146.195-.372.69-.075.059.221.309.567.177.815l-.435-.319c-.005.444.558.421.744.643l-.127.098c.685.47.939.172 1.624.74v-.146c.627 0 .187.416.75.492l-.132.395c.313.124 1.125.394 1.625.691-.44.027-1.067-.27-1.502-.395.249.195.871.64 1.12.59-.127-.049-.312-.075-.376-.2.249 0 .504.05.753.147.246.097.518.261.699.403-.408.31-.05.502.137.719-.15.137-.336.257-.59.248.013.093-.01.169-.105.288-.173.218-.372.421-.576.63-.409.408-.858.82-1.253 1.334.758.01-.227.306.309.617-.159.257-.241.34-.291.337l-.867.487c-.277.058.077-.306-.05-.368-.454.484-.381.058-.785.297.231.067.1.373-.204.612l.558-.24c-.327.918-.907.306-1.243 1.224l.036-.346c-.213.44-1.117 1.366-1.026 2.03-.109.023-.313.006-.213-.181-.781.843-1.194 2.293-1.993 2.798l-.064-.16c-.099.19-.013.462-.299.577-.041-.05-.063-.16-.132-.09-.032.12-.149.6-.399.768l.018-.288c-.858.744-.758 1.578-1.266 2.363-.346-.27-1.012.319-1.344.616l-.04-.049c-.863.971-1.104 1.933-1.73 2.97-.849.285-1.752 1.836-2.723 2.603.177-.093.25.236.15.426-.25.164-.25.79-.54.51l.068-.071c-.445-.08-.731.434-1.021.78l.367.381c-1.352.444-1.734 2.572-2.683 2.652-.076.301-.299.576-.371.873l-.214-.186c-.554.568-.835.852-1.398 1.65l-.032-.28c-.363.417.205 1.037-.104 1.445l-.431-.142c-.604.75-1.507 1.278-1.807 2.248-.04-.048-.118-.146-.032-.28-.295.347-1.33 1.18-.767 1.41-.304-.22-.653.746-.853 1.25l-.168-.234c.005.559.073.63-.236 1.162-.118.088-.254-.04-.077-.142-.422.284-.027.452-.517.815l-.005-.279c-.331.373-.232.4-.24.74-.11.311-.65.688-.894.59a.578.578 0 0 1-.173.666c-.1-.027-.077-.147-.068-.204-.677.527-.527 1.157-1.103 1.431-.082-.048-.14-.048-.191-.026.423-.506.772-.909.754-.86-.204-.16-.577.226-.586-.319-.118.452-.25 1.276-.672 1.604a.306.306 0 0 1-.113 0l.01-.057a.51.51 0 0 0-.174.279c-.136.102-.23.164-.33.288-.21-.084-.477.404-.654.604.236.155-.018.399.367.288-.04.022.005-.058.11-.204.017-.036.045-.075.049-.107.005.009.005.018.01.032.103-.138.245-.32.403-.524-.018.248-.063.492-.372.626.055.217.11.447.123.567-.54.04-1.148.456-1.403.381-.39.727-1.126 1.547-1.03 2.266-.09.221-.286.111-.409.128.04-.137.15-.252.136-.354-.186.439-.821 1.09-.599 1.405-.499.35-.063-.461-.517.195l-.023-.151c-1.457.856-.871 2.558-2.569 3.445.114-.067.168-.098.231-.08a9.039 9.039 0 0 0-1.088 1.18c-.21.27-.4.563-.623.878a6.7 6.7 0 0 1-.758-.572l-.217-.2a5.571 5.571 0 0 1-.718-.789c-.376-.426-.571-.284-.952-.355l.095-.306-.68-.089c-.814-.31-.668-1.453-1.803-1.724l-.023.24c-.272-.262-1.016-.639-.821-.781-.055.004-.232.089-.282-.084l.091-.129-.903-.359c-.495-.528.481-.412-.327-1.082-.345-.19-1.166-.328-1.116-.155.118.102.254.324.163.452l-.331-.155c-.345.319-.858.519-.373 1.303l.659.156.013.292-.413-.301c.096.341.359.31.604.337a.414.414 0 0 0 .045.35l.754.023c-.06.186-.44.115-.186.439.35.013.045-.479.494-.302.096.341-.077.421.305.492-.037.12-.141.138-.282.093.331.076.676.448.953.355.077.385.853.576.554.899.14-.022.64.063.871.222-.735.093.808.665.345 1.02.595-.133 1.212.674 1.906.882-.054.005-.158.018-.19-.035.272.262.268.439.404.656.109-.16.413-.075.704.022.29.098.59.226.79.231.226.416.154.501-.014.514-.16.018-.409-.036-.354.235.072-.342 1.18.519.948.004.164.236.268.364.3.426.14-.088.163-.08.35.022-.028-.354.05-.479.167-.621.114-.137.282-.301.354-.629.654-.421.413.217.935-.656.055-.04.087-.044.105-.04.022.004.04.013.05.027.027.026.031.075-.005.172-.037.129-.164.355-.164.355zm7.894-11.03c.004.004.004.004 0 0a4.92 4.92 0 0 1-.155.226c.032-.049.078-.111.155-.226zm.703-.87a5.148 5.148 0 0 0-.313.368c-.1-.031-.155-.124-.077-.208.01.089.217-.08.39-.16zm-3.027.639c.081-.16.163-.173.222-.155-.05.066-.104.151-.168.261.005.009.01.027.014.036a.293.293 0 0 1-.068-.142z"/><path fill="#14CF93" d="m118.88 49.783.616.526c2.271 1.927 2.646 5.452.841 7.876l-5.039 6.758-8.834-7.505 5.038-6.758c1.805-2.424 5.107-2.824 7.378-.897z"/><path fill="#202020" d="M120.165 53.844c.034.116.35-.06.552-.103.138.13-.233.159-.392.261.112.061.444.052.453.136-.057.018-.074.037-.147.037.297.047.06.308.431.392a.354.354 0 0 1-.086.028c.177-.042.353-.07.483-.08.009.07.229.117 0 .164.005-.047-.091-.042-.164-.052l.104.066c-.328.093-.121-.089-.367-.066.112.117.405.276.311.392-.319.024-.121-.242-.402-.098l.113-.163c-.505.154.03-.093-.514.051-.078.187.177.206.078.392.181.051.267-.004.449.047.319.336-.837.145-.419.392.207.08.621.182.371.298l-.349-.126c-.074.173.491.229.211.373-.134-.074-.086-.181-.134-.163-.31.052.186.145.16.248l-.319-.075c-.009.2.151.504.103.75-.082-.055-.16-.134-.272-.134.039.336-.306.522-.599.597l.168.27c-.017.019-.129-.042-.155-.107-.164.033.134.126.185.252-.03.075-.185-.028-.224-.126.047.35.008.882-.375.877l-.039-.093c-.203.079.323.564.013.527l-.017-.06c-.341.251-.415.797-.932.764.28.322-.384.21.039.611-.358.005-.397-.121-.747.024-.073.056.199.345.177.475l-.232-.196.154.332-.323-.173v.135c.039-.023.155.019.22.08.009.219-.397.177-.518.079l-.03.476c-.086-.089-.082-.168-.112-.257.116.369-.267-.177-.159.159.069.023.129.13.172.172-.194-.046-.323.126-.358.304l-.142-.164c-.207.196-.281.55-.47.803.142-.028.401.228.375.326l-.267-.182c.116.178.15 0 .262.261-.099.07-.323-.172-.362-.298v.093l.031.056c-.07-.065-.108-.107-.195-.191.074.07.005.028-.043-.014-.047-.042-.073-.08.03.07l-.06-.08c-.013.015.03.14.009.197.094.335.06.28.108.597-.044-.028-.091-.117-.121-.182-.03-.093-.048-.159-.069-.164-.035.154-.009.309-.039.504 0-.34-.052-.354-.009-.56-.065 0-.056.02-.237.136-.03.112-.03.173-.073.252-.048.019-.014-.154.047-.266l.017-.019c-.073.066-.116.028-.125-.037a2.646 2.646 0 0 1-.104-.378c-.06-.275-.124-.527-.401-.41l.031-.01-.406.019c-.086-.13.182-.098.194-.299-.513.121-.375-.406-.759-.359.285-.756-.621-.462-.556-1.045l-.095.154c-.164.093-.009-.145-.026-.215-.078.117-.034.182-.125.234-.617-.248-.854-1.083-1.26-1.642-.155-.196-.651.657-.63.112l.264-.21c-.608.004-.751-.663-1.312-.705.069-.042.125-.121.16-.093.065-.261-.276-.252-.393-.093-.043-.066.091-.154.117-.266.008-.182-.375.084-.276-.145.017-.037.069-.046.094-.046-.06.023-.112-.033-.167-.061-.022 0-.044.023-.13.135.061-.121-.168.019-.065-.112-.142.084-.133.042-.125.019.004-.023 0-.037-.228.056.448-.21.34-.191.047-.163.173-.033.155-.056.397-.098a1.758 1.758 0 0 0-.332.018c-.03.005-.057.005-.091.01l-.035.004c.385-.07.242-.06.156-.093-.095-.023-.142-.075.254-.033a.378.378 0 0 1-.224-.21.54.54 0 0 1-.034-.144.337.337 0 0 1 .034-.196c.293.355-.103.215.302.452a.871.871 0 0 1-.103-.135c-.022-.018-.027-.065-.027-.116l-.004-.136c0-.172.022-.326.164-.424.095-.028.117.163.16.238.06-.388.414-.495.405-.891.031.028.048.084.056.13.022-.056.13-.065-.025-.196l.008.084c-.28-.116-.328-.587-.44-.7.38.458.285-.14.746.467-.004-.056-.051-.159-.159-.238.065-.019.134.019.215.163.039-.242-.168-.321-.051-.47.073.065.082.12.155.21-.086-.201-.177-.407-.017-.481.039.046.107.079.077.121.143-.243-.107-.709.212-.835.272.35.168.01.457.238l.013-.2-.173-.066c.091-.112-.038-.387.125-.406l.052.187.104-.261-.194.032c-.061-.242-.363-.294-.173-.378.004.056.086-.112.298-.028-.048-.135-.099-.27.034-.298.108.056.298.284.367.322-.194-.257.134-.327-.065-.611.044.074.186.2.225.219l-.156-.21c.099 0 .134.019.246.126.151-.13-.392-.257-.099-.313.004.028.039.047.043.103.22-.121.151-.471.371-.57.319.192-.043.215.237.36.134-.294.052-.83.285-.966l-.06.01c-.35-.397.31.018.228-.252.004.051.168.247.134.196.186-.056.155-.364.289-.672l.052.135c.151.033.254-.121.384-.121-.044-.135.025-.154-.108-.308.341.238.418.075.522-.112.09-.196.211-.382.457-.126-.035.014-.043.15-.017.14.065-.07.129-.15.202-.21-.082-.224-.068-.13-.176-.294-.005-.144.043-.275.116-.294-.086.187.099.37.177.486-.026-.07-.026-.154-.048-.224.234.373-.082-.476.177-.252l.013.126c.06-.075.104-.252.19-.229.073.266-.061.14-.026.369.1-.033.147-.56.285-.303-.039.084-.108.098-.143.181.151.304.147.215.229.262l-.009-.005.186.135-.052-.084c.095-.732.263-.158.453-.615-.194.443-.035.256-.056.569.043.088.108.186.082.275.095-.247.116.196.255-.154-.005.103.086.023.038.27.108-.065-.004-.177.018-.303.099-.158.19-.042.28.06.091.113.177.21.345.01.246-.135.379-.433.643-.517.017.177-.173.326-.173.326.06.173.138.187.276.126-.051.07-.06.15-.073.266.082.01.19-.313.233-.126-.065.093-.156.247-.233.331.116-.047.28-.173.41-.196-.056.168-.168.2-.246.29.125-.015.306.009.475-.21l-.018-.127c.043.01-.095.215-.142.248-.181.14-.074-.159-.035-.252l.091-.019c.104-.28.021-.303-.095-.266-.117.042-.267.154-.324.103l.225-.364c-.095.084-.19.168-.28.257.012-.117.073-.35.168-.373-.03-.248-.147.093-.156-.164 0-.037.013-.056.03-.07l-.15.08c.051-.08.077-.294.124-.21-.133-.308-.413.19-.401-.15l.022-.018c-.319.065-.108.294-.388.606.013-.266.017-.527.017-.798l-.086.304c-.026-.019-.078-.056-.048-.178-.142.192-.004.14-.099.327-.099-.303-.388.084-.375-.425-.069.234.116.206-.043.35-.004-.55-.177.084-.289-.172.047-.28.172-.126.043-.383-.091.476-.263-.121-.384-.014.009.378-.241.173-.418.313 0-.126-.376-.15-.583-.243l-.008-.065c.039.382-.147.359-.259.471-.052-.22-.052-.313-.005-.434l-.125.038c0 .125-.021.195-.086.265l-.048-.284c-.167.084-.224.443-.495.354.09.248.409.611.289.863-.061-.126-.16-.345-.13-.429-.008.028-.013.14-.073.103l-.013-.261c-.13-.052.03.205-.043.224-.078-.187-.108-.108-.164-.257.008-.028.095.047.09-.042-.094.01-.241-.051-.341-.168.057.098.117.247.07.299-.147.093-.16-.187-.298-.224.026.149-.138.084.004.35-.043.027-.12-.09-.177-.15-.017.159-.336.28-.077.49l.03.005c0 .01-.004.009-.004.018-.03.215-.164.27-.319.313-.147.051-.307.098-.371.247l-.065-.075c-.052.201-.212.35-.138.584-.031.037-.207-.028-.281-.122-.034.154.048.234-.181.276-.056-.21-.138-.066-.017-.187-.159.075-.297 0-.198.317-.156-.21-.311-.107-.298.005l.203.028c-.022.093-.087.14-.147.186l-.224-.247c-.501.005.163.924-.492.69.121.22.229-.037.388.201-.125.093-.574-.089-.604-.051-.263.047.25.471.026.564.104.056.358.238.345.439-.121.093-.483-.173-.5-.308.013-.037.051-.028.082 0-.004-.065-.004-.154-.134-.187l.078.094c-.134-.019-.25.158-.367-.005.017.163.117.163.211.135-.245.047-.185.243-.388.327.069.018.19.084.168.107-.284.14.091.247.013.443-.202-.023-.297-.312-.306-.051-.164.018-.25-.182-.293-.285.065.294-.315.178-.41.234l-.013-.14c.009.084-.021.12-.052.158l.212.108c-.065.018-.096.056-.169-.01.082.15.324.22.415.448-.134-.019-.039.27-.289.084.22-.121-.255-.182-.173-.378.004.056-.026.093-.091.112-.03-.014-.043-.046-.047-.075-.345 0 .207.313.061.5-.117-.14-.285-.173-.281-.117.061-.075.25.154.297.313-.193.032-.021.195-.077.251l.104-.032c.116.14.051.186.034.303-.108-.084-.013-.14-.082-.15.164.295-.397.005-.337.271-.133-.018-.254-.21-.353-.21.065.294-.298 0-.272.28.211.108.173.066.268.322l.06-.364.142.388c.061-.075.004-.257.069-.28.091.205.052.158.224.247-.344-.126.005.34-.267.308l-.44-.388c-.306-.023-.06.588-.444.864l.177-.07c.172.153-.129.228-.121.377-.185-.079-.311-.028-.475-.009.156.033-.228.29.182.387-.134.038-.268.08-.41.126-.362.313.436.34.19.565-.229-.047-.505.098-.566-.08-.073.098-.19.191-.004.173a.078.078 0 0 0-.034.018c0 .07.578.14.427.243.142.01.401-.042.466.033a.636.636 0 0 1-.112.032c.116-.028.28.066.461-.07-.246.196-.052.35.125.472.181.126.345.224.259.499.116.056.233.116.345.177.112.06.168.084.233.13-.043.043-.061.08-.069.047.043.28.431-.378.487-.06-.099.336-.198.06-.211.205-.362.546.268.112.16.522l-.052.005c-.043.257.367-.01.487.154 0 0-.043.042-.06.08.298-.183.556-.108.755-.057-.194.168-.147.052-.272.285.086.023.229-.355.401-.303-.043.149-.021.326-.172.56l-.13-.094c-.151.34.164.126.19.229l-.099.12c.216.117.453-.2.634-.004l.052-.112c.34-.224-.039.257.241.112l-.202.35c.129-.014.478-.093.651-.042-.246.173-.488.168-.682.229.07.065.259.182.41.056-.051.004-.147.056-.138-.019.272-.177.479-.2.612-.075-.482.598.255.472 0 1.045.419-.014.424.523.743.738.25-.57.094.06.44-.453.09.028.112.056.094.093l-.012.471c-.057.187-.147.056-.22.173.12.163-.091.266-.091.48.112-.196.237-.21.272-.07l.047-.331c.401-.084-.125.57.276.49l-.181.098c.177 0 .393.345.789.037-.021.075-.099.229-.172.224.112.145.315.15.535.201.289.112.509.205.617.5l-.087.12c.104.033.233-.167.289.075-.021.06-.077.13-.038.172.064-.013.28-.107.366.085-.039.042-.082.079-.125.116.198.294.388.336.535.29.151-.047.263-.174.397-.15.008-.019.013-.033.022-.051.06.648.37.466.539.355l.013.083c.228-.266.383-.63.496-.98.112-.35.181-.69.284-.979.126.028.276-.056.367-.107a.743.743 0 0 0 .229-.187c.142-.15.271-.336.478-.392-.09-.01-.25-.228-.246-.307.117-.01-.09-.388.203-.117l-.022.019c.337.205.359-.005.449-.108l-.384-.359c.785.21.341-.933.971-.644-.048-.154.017-.238-.034-.392l.211.187c.194-.145.293-.22.414-.5l.116.178c.112-.121-.487-.695-.409-.83l.344.238c.169-.238.617-.234.501-.71.043.043.13.131.116.178.091-.103.527-.238.061-.574.285.243.203-.215.173-.448l.194.2c-.19-.335-.259-.4-.225-.615.052-.014.19.112.104.112.194-.023-.13-.261.086-.308l.095.168c.103-.107.026-.154-.082-.364-.026-.154.224-.214.44-.093-.108-.112-.22-.303-.112-.345a.257.257 0 0 1 .125.14c.297-.154-.069-.541.255-.579.081.042.124.051.155.047-.108.205-.216.364-.22.336.211.14.345-.019.56.308-.077-.252-.314-.686-.146-.807a.3.3 0 0 1 .086.014l.017.032c.039-.028.035-.08.009-.13.06-.038.103-.066.129-.117.203.06.177-.177.216-.27-.259-.09-.181-.192-.423-.16.022-.008.026.029.018.094.004.019 0 .033.012.051l-.021-.013c-.009.06-.03.144-.06.228-.096-.126-.182-.238-.009-.28-.147-.107-.298-.22-.375-.275.388.019.66-.163.888-.14-.038-.168-.03-.35-.065-.523-.042-.172-.142-.335-.383-.452-.056-.084.155-.075.237-.093.043.051.03.107.099.144-.099-.177-.013-.494-.366-.545.163-.196.323.126.271-.159l.108.037c.297-.284.034-.527-.177-.732-.241-.21-.436-.378-.155-.756-.035.052-.047.075-.104.098a.986.986 0 0 0-.034-.527c-.061-.163-.147-.317-.229-.471-.181-.299-.341-.578-.306-1.012-.009-.234-.216-.108-.418-.089l.211-.22c-.13.02-.254.038-.375.061-.168-.028-.104-.233-.078-.438.026-.2.022-.42-.263-.36l-.104.183c-.064-.117-.349-.168-.19-.34-.034.018-.159.139-.129.022l.095-.13c-.129 0-.246.023-.371.032-.091-.228.401-.485.186-.713-.126-.024-.522.158-.552.275.03.037.03.159-.061.29h-.129c-.294.363-.639.699-.639 1.128l.306-.112-.09.22-.121-.09c-.06.23.09.113.216.047a.566.566 0 0 0-.091.252l.397-.247c-.091.163-.276.243-.246.401.181-.116.19-.378.362-.406-.073.22-.198.34-.025.257-.065.102-.126.15-.182.168.138-.066.173.08.363-.08-.117.239.211.14-.095.448.086-.06.324-.149.384-.107-.457.257.129.22-.319.56.414-.233.336.117.621.112-.035.014-.108.037-.095.014.013.098-.095.196-.143.284.337-.19.466-.102.713-.135-.281.275-.428.145-.721.345.267-.154.349.024.565-.121-.168.177-.065.117-.341.285.44-.178.095.037.389-.005-.177.205-.406.191-.225.261-.151.15-.345.103-.345.103zm.604 3.144c-.004 0-.004-.005-.004-.005a.554.554 0 0 1 .013-.074c0 .018-.005.037-.009.079zm-.117.266a.459.459 0 0 0 .069-.107c.087.037.169.093.152.116-.053-.046-.134-.01-.221-.01zm1.989.15c.017.078-.043.078-.099.064a.342.342 0 0 0 .009-.12c-.009-.006-.018-.015-.031-.02a.522.522 0 0 1 .121.075zM61.08 120.905c-.524.015-1.168.179-.994.804.587-.261.645.007 1.29-.343.407.134.65.499.533.662.175-.066.587.409.878.179-.423-.64-1.063-.967-1.824-.975-.116-.186.059-.252.117-.327zm5.118-60.057c1.348.385-2.038 1.011-.025 1.365-.21-.222 1.676-1.223.025-1.365z"/><path fill="#202020" d="M74.127 31.484c-.744.558-.132.549-.163.839-.82.753-.572.093-.984.174-.491.495-.713 1.083-1.133 1.387-.067-.027-.16.017-.11-.112-.408.674-1.72 1.33-2.18 2.136-.07.014-.115.01-.141-.004.221.062.35.196.403.32-.328.26-.474.652-.744.558.208-.147.168-.24.217-.37l-.284.348c-.518-.036.403-.455.248-.66-.61.607-1.226 1.432-1.802 1.748-.31-.187 1.142-1.012.274-.727l.877-.508c-.93.044.51-.343-.394-.366-1.111.727-1.076 1.035-2.187 1.762-.124.33.243.16.12.49-1.294 1.41-1.684.223-2.516 1.418-.15.397-.005.821-.926 1.236l.04-.509c-1.045.75-.257.879-1.479 1.49.102-.263.726-.714.545-.629-.873.29-.363.544-.895.95l-.314-.183c-1.054.87-2.108 1.976-3.277 2.944.009-.13.15-.37-.195-.241-1.417 1.293-3.268 2.44-4.854 3.394l-.385.66c-.133.098-.319.08-.212-.072-.638.348.08.17-.124.468-.315.264-.532.192-.377-.03-.859.963-2.55 2.608-3.8 3.17l.156-.227c-.9.535-.576 1.186-1.506 1.552l.115-.152c-1.869 1.267-3.693 2.988-5.327 3.684-.009.53-1.887 1.204-1.652 1.757-1.2.548-.965.245-2.529 1.186-.402.272-.354.727-.797 1.142l-.194-.237-.457.75-.562-.027-.2.2-.101.103c-.036.036-.058.063-.128.125.093-.067.123-.076.181-.103a.81.81 0 0 1 .15-.044c.094-.018.169-.01.182.035-.075.08-.164.157-.257.232-.106.085-.288.219-.434.322-.314.218-.65.432-.978.624-.651.384-1.289.709-1.422.714-.872.77-1.66 1.48-2.356 2.118-.248.035.129-.304.35-.57-.438.525-.673.605-.948.708-.256.09-.544.2-.903.656.385-.206.399-.076.55-.112-.7.397-1.582 1.012-2.374 1.614a50.126 50.126 0 0 0 2.152-.299l-.895.317c2.755-.267 6.293-.838 9.162-1.172-.11-.005-.199-.014-.279-.018a1.143 1.143 0 0 1-.23-.04c-.11-.037-.146-.09-.124-.143.022-.059.098-.12.213-.174.11-.054.292-.103.39-.125l.239.299c.3-.237-.54-.059.097-.38.642-.04.474.313.115.46l.766-.2c.058.088-.12.16-.155.289.297-.236 1.382.165 1.798-.236l.053.089c1.714-.196 2.476-.401 3.87-.58-.004-.28.55-.28.94-.553 1.036-.031 2.196.054 3.427-.116.85-.24.226-.263.598-.473.093.246 1.324.077.704.33 1.48-.213 1.887-.271 3.738-.695-.217-.08-.448-.098-.341-.196.336-.08.783.013.752.142l-.088.036c2.059-.624 4.942.165 6.554-.558l-.093.037 1.705-.478c.806-.049-.456.245.15.33 1.825-.642 2.967-.285 4.477-.749 1.28.602 4.234-.549 5.899-.263l-.115-.165c.398-.219.513.04.828.045-.058-.13-.47-.103-.222-.232 3.508-.625 7.316-.598 10.952-.866 1.329-.107.646-.994 2.365-.771l-.435.379c1.29-.344 2.631-.504 3.969-.651l-.404-2.475c-1.368.312-2.75.575-4.016 1.083.137-.111.115-.21.367-.272-.602-.089-2.019.509-1.974.7-.408.08-.138-.147-.413-.178-.584 0-1.284.678-1.633.53-.058-.022.133-.12.225-.164-.323.214-1.656.446-1.24.615-1 .138-1.789.687-2.6.767-.402.446-1.673.388-1.69.861-.076-.45-1.772.24-2.295.65.151-.204-.562.068-.394-.2-.673.268-1.262.58-1.063.75-1.443-.036-2.316 1.396-3.268 1.047-1.873 1.066-3.6 2.056-5.283 3.015-.137-.433 1.891-.98 1.617-1.368-.784.49-1.373.935-1.97 1.346-.594.428-1.188.83-2.016 1.204-.443.17.142-.294.248-.437-1.523 1.03-3.117 1.7-4.37 2.779-.018-.036.106-.17.23-.286-.266.183-.669.34-.532.49l.24-.21c.588-.016-.758 1.192-.71 1.366.138-.79-1.412.767-1.097-.326-.155.152-.324.38-.209.464-.283.143-.411.129-.23-.174-.899.731-.43.687-1.284 1.289-.053-.08.097-.236.115-.392-.319.468-.642.922-1.395 1.382.01-.08-.12-.08.089-.24-.59.476-1.023.971-1.484 1.457-.456.49-.92.995-1.616 1.45.097-.642-.523.254-.824.045l-.593.686.385-.107c-.589.522-.917 1.182-1.474 1.57l.31-.517-1.001 1.079.69-.482c-.43.692.386.277-.425.928.115-.183-.544.549-.974.705v-.005c-.177.366-.363.727-.81 1.101-.186.036-.226-.365-.346-.343-.013.5-1.147 1.445-1.173 2.047.04-.174-.106-.303-.169-.285v.41c-.283.236-.35.254-.434.116-.704.838.576.004-.363.919.045-.094-.022-.08.08-.273-.425.495-.748 1.044-1.072 1.566-.3.54-.584 1.075-.956 1.552-.505.111.478-.941-.005-.758-.859 1.538-1.386 3.362-2.032 4.914l.15-.276c.204.205.023.464-.199.798-.208.34-.478.75-.487 1.196.027-.21-.195-.344-.155-.273a4.152 4.152 0 0 0-.244.865c-.057.303-.11.62-.155.955-.035.682-.093 1.431-.04 2.319l-.119-.228c-.186.683-.124 1.824-.106 2.582.16.21.19.634.354.353-.261 1.195.16 2.292.629 3.242.252.477.5.932.748 1.383.222.464.448.914.572 1.436-.124-.21-.395-.442-.297-.272.319.49.69.936 1.045 1.391.106-.245-.018-.268-.07-.665.234.103.575.437.84.763-.584-.508-.287.223-.181.571.022-.089.15-.045.19-.112.24.959.443-.173 1.01.919l-.128.031c.336.304.752.482 1.058.856-.049.335-.416-.258-.593-.129.482.5 1.301.589 1.572 1.205-.266-.139-.563-.429-.824-.576.279.687.385.7.73 1.066l-.03-.04c.265.289.518.593.797.869-.058-.084-.12-.164-.177-.254.553.009.907.254 1.275.549.38.276.762.62 1.364.758-1.151-.303-.297.098-.536.29.195.236.51.571.359.566.58.121.655.678 1.492.808-.026.102.492.316.257.459.647.312-.058-.232.062-.303 1.085.303 2.006 1.681 3.614 2.011 1.284.455 1.651.268 2.838.655.315.317-.456.174-.456.174.554.415 1.032.611 1.66.763-.15.027-.057.143.08.321.483.183.452-.187 1.019.209-.146.054-.35.157-.624.157.593.156 1.217.218 1.828.37.093.219-.442.093-.69.111.681.201 1.758.531 2.054.357l-.39-.249c.244.075.045.258-.15.24-.638-.022-.78-.401-.775-.504l.439.103c-.222-.687-1.692-.58-2.507-.968l.505-.232-.974-.053c-.138-.179-.164-.442.26-.322-.504-.441-.575-.098-.982-.53-.04-.058-.01-.063.049-.054l-.616-.151c.146-.027.031-.308.35-.089-.908-.691-1.754-.513-1.993-.982l.093.018c-1.44-.593-.27.201-1.47-.026l-.332-1.035-.28.192c-.136-.085-.398-.264-.287-.339-.616-.121.022.165-.372.16-.532-.619-1.895-.994-1.776-1.503-.354.04.523.554-.252.237.084-.563-.846-.446-1.289-1.058.332-.093.793.402.354-.196-.61.134-1.045-.878-1.554-1.168-.244.268-1.094-.682-1.904-1.258.062-.022-.24-.378-.629-.82-.372-.455-.837-.99-1.072-1.383l.062-.018c-.19.054-.43-.111-.686-.348-.244-.244-.492-.57-.73-.82.19-.107.336-.062.632.169l-.39-.504c-.176-.053-.34-.182-.606-.503l.314-.018c-.487-.673-1.173-1.285-1.474-2.351-.133.023-.2.295-.31.438-.102.138-.301.173-.598-.361.106-.095.31-.224.474.039-.053-.084-.24-.29-.261-.503l.385.347c-.093-.504-.275-.169-.407-.552.185-.063.017-.326.185-.326.054.089.054.352.182.464-.15-.424-.186-.981-.102-1.191-.093.067-.248.076-.372-.227-.212-.816.16-.339.15-.834-.088-.085-.128-.264-.176-.415-.036-.156-.093-.286-.235-.272-.031-.245.102-.308.168-.41a2.886 2.886 0 0 1-.124-.478c-.03-.2-.04-.424-.062-.62-.044-.387-.106-.669-.252-.423l-.018.111a2.01 2.01 0 0 1-.013-.071v.005-.005c-.098-.361-.08-.736-.062-1.115.013-.187.03-.374.053-.566.03-.188.08-.375.12-.558.15-.745.416-1.454.518-2.176l.093.027c.066-.429.199-.893.305-1.33.11-.436.248-.838.257-1.168.093-.241.385-.495.452-.348.208-.629.146-.749.695-1.538-.133.678.23-.138-.177.669.43-.745.686-.816.886-1.762.03.201.177.098.332-.103.155-.196.34-.48.411-.678l-.469.415c.213-.406.443-.736.673-1.07l.16.365a5.47 5.47 0 0 0 .748-.994c.2-.343.35-.7.514-1.04.345-.66.677-1.283 1.364-1.578.062-.25-.124-.093-.32.063-.19.16-.38.33-.354.08.55-.607 1.462-.928 1.621-1.12.868-.695.346-1.083 1.227-1.85-.177.03-.518-.098.03-.794.616-.544 1.06-.352.758.076-.133.143-.226.183-.248.147-.16.214-.367.49-.048.357l-.01-.157c.373-.196 1.156-.985 1.103-.659.363-.504.053-.326-.31-.05.86-.597 1.196-1.097 2.064-1.73-.173.058-.377.063-.252-.049 1.297-.9.385-.615 1.177-1.342.58-.245.093.46.842-.325.593-.308.3.16.155.392.633-.772 1.519-1.003 1.993-1.289-.12.125-.24.245-.355.38.209-.233.416-.37.62-.523l-.376-.018c.27-.142.474-.29.527-.21.164-.307-.42-.177-.04-.708.394-.138.926-.825 1.222-.638-1.098.633.284.174-.558.834a2.33 2.33 0 0 1 .62-.433c.058.005 0 .076-.057.139 1.155-.438.265-.598 1.31-1.29-.035.237.421.121.572-.026-.421.276-.363-.116-.04-.481.757-.308.69-.55 1.058-.759l-.443.201c.05-.236.403-.428.855-.776.11.093-.39.353-.186.294.372-.606 1.377-.45 2.028-1.065.408-.099.195.267.54.16.731-.691 1.041-.294 1.847-.945-.367-.072-.39.004.142-.54l-1.413.94.793-.81c-.452.24-.881.632-1.17.748.36-.419.346-.338.036-.396.784-.018 1.13-.835 1.957-1.004l.244.53c.59-.173 1.045-.458 1.523-.802.488-.334.997-.723 1.75-.972l-.505.116c.093-.3.872-.433 1.297-.732.036.197.355.13.603.152-.084-.129 1.054-.46 1.036-.865l.748-.036c1.21-.392 1.125-1.083 2.298-1.458-.27.33.302.259-.407.696.381-.143.735-.246.695-.37.266.03.966-.656 1.382-.616.133-.142.115-.353.553-.49.062.022.031.093.031.093-.03-.093.634-.361.186-.432.7.08 1.52-.232 2.334-.522.815-.281 1.608-.571 2.205-.486.829-.34 1.852-.678 2.627-.923-.036.07.022.093-.129.115 1.12-.133.51-.744 1.798-.865.709.143-.611.335-.19.348.332.58 1.466-.468 2.382-.321l-.19.09c.682.044 1.496-.598 2.546-.8 0 0-.04.068.014.1.23-.175.548-.34.925-.496l-.177-1.088c-.656.205-1.453.361-2.103.5.291-.286.451-.188.225-.42-.456.09.181.393-.73.571-.315-.103-.993-.143-1.112-.406l.863-.116c-.482-.299-1.12.143-1.585.139l.04-.161c-1.324.205-1.297.593-2.728.736l.16.098c-.736.473-.678-.138-1.427.236l-.279-.361c-.504.156-1.757.589-2.674.767.491-.348 1.554-.624 2.2-.874-.509.058-1.73.232-1.974.455.2-.063.451-.188.66-.152-.59.38-1.4.624-2.414.736.093-.776-2.675.12-3.476-.379-1.767.49-3.583.299-5.673.589.81.5-.611.089-.412.673-.483.094-.673.107-.717.076l-1.52-.187c-.371-.134.448-.188.39-.317-1.075.08-.478-.2-1.204-.281.168.196-.337.352-.956.339l.89.178c-1.457.495-1.351-.352-2.821.139l.456-.246c-.762.201-2.852.33-3.552.901-.146-.053-.345-.196-.008-.28-1.856.142-4.052.994-5.523.864l.124-.165c-.34.085-.567.348-1.014.25.014-.062.124-.165-.04-.151-.177.07-.885.365-1.35.334l.372-.21c-1.825.018-2.72.727-4.216 1.004-.044-.433-1.48-.41-2.196-.397l.017-.062c-2.103.191-3.52.776-5.442 1.172-.315-.08-.731-.107-1.205-.094a16.24 16.24 0 0 0-.753.037 1.442 1.442 0 0 0-.203 0c-.248.004-.602.048-.443-.103-.075.049-.27.156-.487.263a4.28 4.28 0 0 1-.602.25c.035-.05-.297.067-.527.129-.226.062-.31.071.394-.214l.03.005.554-.255c.651-.286.492-.245.602-.317l-1.337.362c.673-.276.952-.388 1.13-.5.168-.102.243-.21.362-.348l.093-.106c.018-.019.027-.032.053-.059l.156-.134c.203-.174.402-.334.593-.472.38-.277.73-.464 1.04-.486.293-.388.749-.736 1.041-1.12l.146.241c1.068-.722 1.6-1.084 2.826-2.105l-.138.357c.727-.53.417-1.333 1.068-1.846l.447.183c1.244-.955 2.723-1.624 3.729-2.864.017.063.053.188-.138.357.594-.437 2.44-1.503 1.882-1.797.24.285 1.307-.95 1.882-1.597l.062.3c.36-.714.32-.803 1.054-1.486.209-.116.297.05.005.183.713-.361.332-.58 1.178-1.044l-.177.357c.655-.472.549-.508.779-.945.341-.397 1.267-.874 1.51-.75-.004-.187.226-.62.651-.851.106.035.005.187-.049.263 1.192-.674 1.408-1.476 2.316-1.824.071.062.146.062.226.035-.859.647-1.559 1.16-1.505 1.098.15.205.872-.29.531.41.438-.575 1.138-1.632 1.887-2.051.048-.005.093-.01.141.004l-.053.076c.173-.098.297-.223.403-.357.24-.13.394-.21.602-.366.208.107.86-.513 1.214-.767-.195-.2.283-.508-.28-.37.067-.027-.044.076-.265.259-.049.044-.106.093-.128.133.004-.008.004-.022.008-.035-.221.178-.513.406-.845.669.185-.321.402-.633.876-.798.071-.277.155-.571.213-.728.704-.049 1.74-.575 2.01-.481.961-.928 2.418-1.971 2.768-2.894.261-.281.434-.143.594-.161-.142.174-.35.326-.399.455.518-.562 1.74-1.392 1.665-1.793.855-.441-.221.593.78-.245l-.071.196c2.39-1.088 2.758-3.269 5.468-4.397-.186.085-.274.125-.345.102 2.777-1.699 5.128-4.294 7.985-5.815.788-.468.726-.713 1.058-1.19l.336.12.55-.852c.916-1.017 2.294-.825 3.36-2.239l-.296-.027c.509-.338 1.47-1.27 1.528-1.02.026-.068.035-.29.288-.349l.11.112 1.037-1.124c.992-.616.226.606 1.598-.402.465-.432 1.156-1.453.908-1.39-.208.146-.576.316-.687.204l.413-.415c-.195-.432-.124-1.079-1.444-.472l-.616.825-.385.013.655-.517c-.5.116-.628.446-.819.754-.133-.045-.297-.032-.478.053l-.51.941c-.203-.071.134-.548-.447-.236-.239.437.59.058.071.62-.5.12-.495-.103-.828.379-.133-.05-.084-.179.058-.353-.306.415-1.005.839-1.058 1.191-.55.094-1.285 1.066-1.51.687-.063.178-.488.803-.838 1.088.346-.919-1.368 1.003-1.532.424-.208.745-1.638 1.507-2.347 2.377.026-.067.075-.201.168-.237-.509.34-.734.335-1.102.5.168.357-.536 1.003-.802 1.507-.819.156.089-.638-.314-.785.217.228-.846 1.04-.488 1.093-.593.16-.46.21-.89.134.213.446-.376.388-.575.914-.802.312-.443-.232-1.08.437-.43.152.114-.473.114-.473zM57.388 45.287c-.004 0-.004-.005 0 0 .142-.125.266-.223.341-.29-.07.063-.168.147-.34.29zm-1.448 1.11c.182-.124.403-.29.633-.468.107.04.111.16-.035.268.044-.116-.332.098-.598.2zm4.22-.798c-.203.205-.314.223-.38.2.106-.084.225-.19.38-.33 0-.013.01-.03.01-.048a.35.35 0 0 1-.01.178z"/><path fill="#202020" d="M54.597 118.176c.337.324.76 1.105 1.28 1.364l.085-.107c-.306.099-.954-1.292-1.365-1.257z"/><path fill="#fff" d="M32.04 18.912c-.587.132-3.914.922-5.408 3.559-1.745 3.087-.089 7.154 3.508 8.866 4.248 2.02 10.083.227 11.72-3.233 1.278-2.711-.344-5.758-2.426-7.473-1.852-1.525-4.018-1.955-4.993-2.095"/><path fill="#202020" d="M27.26 18.69c-.165.126.17.326.279.503-.105.23-.265-.121-.458-.203-.045.173.106.476.019.54-.05-.034-.083-.034-.12-.103.11.308-.324.338-.15.706a.397.397 0 0 1-.087-.039c.164.09.31.203.412.29-.046.065.091.256-.124.134.037-.034-.037-.095-.082-.16l.027.13c-.325-.147-.018-.165-.224-.32-.023.207.082.515-.073.567-.302-.169.096-.308-.266-.338l.238-.086c-.535-.191.114-.078-.444-.3-.27.17-.06.352-.306.533.123.152.251.13.375.282.078.476-.916-.156-.668.316.164.169.54.381.238.455l-.316-.221c-.16.23.444.36.091.51-.123-.099-.036-.237-.091-.22-.357.052.15.204.096.325l-.334-.095c-.078.285.078.658.05.961-.096-.039-.183-.117-.306-.074.018.213-.019.412-.12.611-.1.195-.238.39-.347.576l.284.169c-.005.035-.142.052-.193.013-.123.143.188.022.298.1.014.082-.179.1-.266.043.23.286.536.727.23 1.013l-.097-.047c-.096.225.636.186.38.398l-.055-.03c-.046.23.027.459.073.675.041.217.037.43-.123.65.43-.048-.05.49.53.342-.196.33-.32.29-.366.706.014.104.403.004.504.091l-.288.121.375.022-.302.225.123.07c-.004-.048.083-.143.17-.174.206.095.004.477-.133.555.146.086.307.164.458.242-.115.052-.188.013-.289.004.398.044-.26.195.105.234.046-.06.17-.078.225-.108-.105.182.023.39.201.485l-.197.09c.156.295.504.495.76.759-.014-.16.293-.368.384-.316l-.206.233c.197-.082.019-.16.298-.216.06.117-.215.308-.352.316l.196.048c-.064.07-.128.078-.228.151.187-.082-.028.43.302.256l-.06.073c.284.256.48.295.742.46.183-.208.238-.091.448-.213.11.2.192.507.44.624.237-.017.173-.165.334-.26-.124.217.119.334-.097.416.303.121.403.143.856.134.005-.108-.018-.169.042-.234.082-.008.1.16.04.264l-.027.018c.275-.065.449.16.636.398.183.234.39.45.641.23l-.027.021.43-.181c.16.077-.142.16-.05.337.476-.307.636.152 1.006-.073.092.38.34.385.586.337.252-.043.5-.112.691.109l-.027-.17c.082-.172.114.092.188.122-.019-.13-.11-.147-.06-.242.375-.135.764-.091 1.176-.07.206.018.421.052.632.061.21.009.426.009.632-.009.306-.039-.133-.874.343-.615l.018.334c.206-.286.485-.368.755-.48.27-.118.55-.226.71-.499.009.078.06.165.009.19.229.144.393-.22.283-.376.088-.026.115.134.216.186.187.048.087-.403.274-.247.032.026.019.078.01.104.004-.125.32-.19.09-.36.253-.025.243-.333.486-.311-.114-.282.375-.13.1-.463.303.329.536 0 .472-.23.069.121.188.013.293.173.11-.113.133-.281-.064-.407.302.065.311-.117.32-.264.01-.152.023-.264.357-.139.064-.52.156-.93.215-1.334.408.2-.155.412.275.611.014-.45-.233-.78.005-1.078.091-.07.169.117.228.177-.022-.212.05-.38.115-.554.06-.169.087-.347.01-.533.04.009.077.052.104.096 0-.07.101-.14-.105-.17l.041.074c-.32.035-.558-.364-.723-.394.572.2.192-.281.915-.009a.333.333 0 0 0-.26-.12c.05-.057.132-.07.279.017-.083-.252-.307-.187-.284-.39.1.008.137.052.256.082-.192-.126-.384-.234-.288-.403.06.013.142-.004.137.048-.009-.312-.526-.494-.352-.814.444.06.137-.122.508-.174l-.137-.164-.174.09c-.014-.155-.307-.246-.202-.389l.17.087a3.488 3.488 0 0 0-.124-.269l-.11.178c-.224-.113-.471.095-.407-.109.046.03-.028-.138.178-.255-.137-.043-.27-.087-.21-.208.11-.056.412-.078.485-.113-.33.01-.188-.316-.535-.307a.957.957 0 0 0 .31-.07l-.265.018c.06-.087.092-.108.247-.147-.027-.208-.434.203-.325-.082.028.012.06-.01.11.017.014-.264-.316-.381-.297-.628.32-.204.17.143.435-.043-.202-.286-.714-.43-.783-.741l-.01.07c-.489.207.115-.321-.191-.339.055.013.283-.1.228-.082-.036-.23-.356-.312-.681-.48l.137-.044c.032-.173-.147-.307-.183-.45-.138.047-.165-.026-.298.125.183-.398-.055-.49-.274-.558-.23-.07-.463-.1-.367-.46.032.03.165-.004.138-.03-.105-.052-.224-.09-.334-.134-.142.182-.064.126-.138.299-.128.07-.265.086-.32.035.21-.018.256-.265.293-.399-.041.056-.11.1-.156.156.147-.407-.33.316-.32-.022l.087-.082c-.105-.009-.27.065-.316-.013.137-.225.147-.039.293-.2-.114-.073-.522.239-.449-.034.087-.026.156.017.243-.009.087-.311.023-.264-.023-.359l.005.013c-.032-.082-.069-.16-.106-.238v.1c-.54.467-.357-.087-.796.181.412-.25.165-.186.339-.428-.005-.096-.032-.221.032-.278-.22.148-.064-.25-.38-.021.041-.087-.1-.06.041-.256-.165 0-.05.16-.119.256-.338.186-.284-.576-.769-.295-.325.065-.49.347-.764.416-.023-.165.188-.299.188-.299-.074-.169-.179-.182-.334-.117.05-.069.05-.143.045-.255-.105-.005-.174.307-.256.134.055-.095.133-.247.215-.33-.142.048-.311.187-.453.235.014-.165.142-.221.215-.312-.16.03-.398.052-.503.294l.06.109c-.051 0 .031-.221.082-.26.169-.17.142.125.123.22l-.1.04c-.07.55.352 0 .517.086l-.197.36.274-.264c0 .108-.05.329-.15.359.045.22.146-.1.169.139a.08.08 0 0 1-.028.065l.151-.074c-.05.074-.087.273-.128.195.1.281.421-.165.37.138l-.027.018c.316-.018.142-.26.495-.494-.06.238-.12.476-.188.715l.156-.256c.023.022.064.065 0 .169.192-.134.04-.121.187-.269 0 .295.417.065.206.49.16-.173-.032-.212.183-.277-.224.454.202.008.188.273-.178.203-.201.026-.22.285.307-.337.156.2.284.187.206-.286.28-.005.494.008-.082.087.147.342.183.542l-.045.043c.265-.251.352-.095.494-.07-.156.152-.229.2-.343.23l.082.07c.1-.066.17-.087.256-.07l-.215.173c.12.078.444-.013.449.239.201-.156.412-.58.7-.538-.096.096-.27.256-.352.252.027 0 .132-.03.114.034l-.233.091c-.014.13.178-.09.21-.026-.15.126-.073.13-.197.221-.027 0 .023-.1-.055-.07.028.083 0 .226-.096.343.083-.074.206-.164.266-.138.11.103-.151.186-.174.307.133-.056.078.1.316-.074.027.035-.078.122-.133.182.15-.017.252.256.458.009l.004-.026c.01 0 .01.004.018.004.399.048.184.52.417.667l-.087.048c.178.073.238.247.476.251.023.039-.11.173-.229.208.12.065.229.034.16.247-.21-.03-.123.1-.169-.048-.005.165-.142.256.174.29-.256.052-.252.221-.151.252l.128-.16c.069.055.073.125.082.194l-.33.087c-.132.203.065.255.243.325.179.065.316.151.014.346.247.009.115-.195.398-.204-.004.148-.43.399-.42.434-.133.207.516.047.439.264.114-.044.42-.135.567-.005-.014.148-.462.247-.577.182-.018-.03.019-.052.06-.056-.055-.035-.114-.078-.233-.004l.123-.005c-.1.087-.069.256-.27.243.128.078.202.013.252-.07-.151.187.032.256-.064.434.064-.03.201-.07.206-.044-.138.26.233.096.297.269-.178.108-.44-.018-.279.147-.119.104-.32.026-.421-.009.242.148-.16.269-.201.343l-.097-.074c.055.043.055.078.05.117l.243-.03c-.045.043-.045.078-.146.073.155.056.403-.013.613.1-.119.052.105.208-.215.195.137-.178-.325-.013-.352-.174.032.03.027.07-.023.109a.116.116 0 0 1-.083-.026c-.306.134.348.117.316.303-.174-.052-.343-.013-.306.021.009-.069.306.014.425.109-.17.09.069.151.037.212l.082-.06c.17.06.133.12.165.22-.137-.026-.073-.104-.142-.086.284.177-.366.134-.215.316-.137.021-.325-.095-.421-.07.17.208-.275.065-.156.26.243.052.193.018.362.204-.01-.1-.032-.2-.06-.295.092.087.188.182.27.277.037-.073-.082-.212-.027-.242.16.139.105.117.307.143-.376-.013.114.29-.179.32l-.55-.233c-.329.043.152.424-.127.563l.137-.018c.188.139-.06.143-.023.26-.165-.108-.256-.104-.38-.138.128.073-.105.134.206.372a9.186 9.186 0 0 1-.279-.056c-.215.086.298.506.105.628-.128-.182-.293-.2-.325-.395-.045.048-.11.07-.004.156-.12-.052.087.312-.105.23.04.078.187.22.119.264a.282.282 0 0 1-.07-.065c.074.065.006.173.216.273-.302-.134-.403-.03-.494.087-.096.112-.202.22-.44.078-.082.134-.178.307-.293.385-.027-.052-.055-.078-.022-.074-.266-.047.22.516-.092.468-.27-.203.01-.203-.119-.264-.375-.515-.174.212-.499-.035l.014-.047c-.206-.139-.12.32-.311.364 0 0-.019-.053-.041-.087a.752.752 0 0 1-.074.42c-.06.108-.142.186-.21.26-.041-.247.027-.148-.105-.368-.06.06.183.36.054.485-.105-.104-.256-.174-.366-.416l.133-.065c-.201-.294-.174.078-.27.048l-.041-.143c-.193.117-.078.467-.33.51l.06.105c-.032.398-.17-.174-.23.134l-.136-.36c-.06.117-.225.416-.376.52.041-.294.192-.468.266-.65-.087.014-.28.078-.289.27.028-.044.05-.144.101-.092-.041.312-.165.48-.348.507-.078-.719-.499-.139-.668-.697-.284.311-.59-.113-.92-.061.087.576-.1.013-.123.593-.087.026-.12.013-.124-.026a7.73 7.73 0 0 1-.21-.377c-.033-.177.091-.12.1-.25-.165-.066-.036-.256-.123-.42-.01.212-.106.29-.184.203l.092.281c-.302.286-.11-.524-.398-.26l.114-.164c-.137.074-.416-.078-.672.325 0-.074.022-.234.086-.26-.228-.152-.814.273-.892-.108l.087-.122c-.064.018-.21.204-.206.044.032-.052.087-.122.069-.139-.046.035-.252.165-.28.06l.138-.116c-.147-.282-.581.125-.87.078.247-.343.16-.59.124-.706l.04-.044c-.219-.212-.649-.069-1.02-.164.225-.455-.302-.594-.256-.996-.037.082-.288.186-.357.169.032-.104-.38.004-.032-.204l.01.026c.297-.251.141-.316.09-.416l-.47.247c.251-.32.086-.441-.065-.571-.15-.126-.325-.239-.027-.442-.151-.018-.183-.1-.334-.122l.27-.095c-.005-.203-.01-.299-.142-.51l.21-.01c-.018-.125-.846.057-.906-.073l.403-.139c-.06-.242.256-.524-.16-.701.064-.005.187-.013.206.021 0-.112.242-.437-.34-.359.376-.03.02-.243-.146-.377l.284.013c-.361-.104-.462-.108-.567-.273.036-.039.224-.026.155.022.147-.121-.27-.108-.105-.256l.174.065c.032-.125-.064-.12-.27-.207-.105-.096.091-.247.348-.234-.156-.035-.348-.135-.261-.2a.339.339 0 0 1 .178.057c.23-.178-.26-.377.037-.468a.53.53 0 0 0 .17.013c-.037.165-.078.295-.097.277.256.044.325-.073.664.091-.174-.125-.563-.398-.398-.494.027 0 .05 0 .091.005l.023.021c.032-.021.018-.052-.018-.086.055-.026.091-.043.105-.078.21.047.151-.104.183-.165-.274-.082-.192-.151-.448-.147.022-.004.027.022.027.07.005.012.005.025.018.034l-.023-.013a.909.909 0 0 1-.032.165c-.123-.091-.224-.182-.05-.208a4.264 4.264 0 0 1-.403-.238c.417.03.687-.052.925.017-.078-.247.1-.45-.298-.814-.027-.087.17.008.252.03.032.056.005.087.06.139-.069-.174.142-.317-.156-.538.229-.038.238.252.307.048l.078.082c.352-.008.27-.242.21-.515-.06-.264-.05-.537.389-.446-.06-.009-.087-.013-.133-.052.32-.07.472-.303.668-.511.193-.208.426-.394.801-.312.188.009.083-.19.078-.385l.179.238-.023-.373c.105-.329.695.464.755-.064l-.119-.165c.114-.009.275-.23.343-.017-.004-.04-.046-.204.032-.122l.06.143.155-.329c.234.043.179.58.458.524.078-.082.165-.502.096-.593-.046.004-.137-.06-.187-.208l.082-.104c-.11-.437-.128-.91-.513-1.13-.04.108-.082.212-.119.32l-.132-.186.164-.065c-.16-.169-.164.026-.192.165-.055-.105-.11-.174-.165-.2l-.04.468c-.088-.156-.037-.355-.207-.403-.018.217.23.338.133.511-.165-.16-.206-.32-.243-.121-.06-.1-.064-.177-.04-.242-.042.164-.234.151-.184.39-.201-.191-.288.19-.467-.196.014.104-.013.377-.087.434-.087-.529-.33.125-.558-.373.114.46-.316.399-.37.736-.01-.039-.033-.112 0-.104-.133.035-.243-.065-.367-.09.206.324.092.506.151.749-.352-.208-.197-.412-.448-.667.192.247-.042.402.164.576-.238-.109-.15-.026-.402-.234.293.385-.041.134.073.416-.293-.074-.339-.312-.39-.083-.173-.039-.15-.281-.15-.281zm-1.813 4.193h-.004c.004-.039.009-.07.009-.091-.005.017-.005.043-.005.091zm-.082.35a.613.613 0 0 0 .041-.15c.101.008.197.043.183.077-.06-.035-.132.035-.224.074zm2.087-.164c.027.052-.032.048-.087.04 0-.023 0-.049-.009-.083l-.032-.013c.05.022.096.039.128.056z"/><path fill="#fff" d="M101.005 114.081H88.72V125h12.285v-10.919z"/><path fill="#202020" d="M88.72 124.045c-.295-.244-.805-.517-1.364-.367.584.244.337.299 1.027.557.074.206-.197.369-.42.329.158.067-.13.326.248.436.469-.273.485-.614.099-.968.147-.083.304-.013.41.013z"/><path fill="#202020" d="M92.585 126.365c.189.009.09-.36.132-.572.227-.104.104.27.184.46.142-.1.25-.438.36-.424.009.063.028.081.004.157.15-.293.444-.013.619-.383a.34.34 0 0 1 .023.09 2.848 2.848 0 0 1-.028-.509c.085-.004.16-.234.189.009-.052-.009-.057.091-.08.167l.09-.104c.08.347-.123.122-.123.379.175-.113.377-.401.51-.302.028.338-.312.112-.133.414l-.207-.13c.155.536-.128-.036.019.536.274.1.307-.171.576-.072.061-.189-.019-.28.042-.469.388-.338.303.856.586.402.076-.226.104-.658.303-.428l-.072.382c.265.037.152-.554.426-.293-.047.154-.208.126-.166.172.18.302.128-.217.265-.217l.028.343c.279-.054.59-.298.902-.361-.018.1-.07.208 0 .311.392-.171.837.041 1.214.243l.147-.292c.033.004.061.131.024.189.146.113.01-.185.08-.302.085-.023.108.167.056.257a1.57 1.57 0 0 1 .501-.325c.265-.063.558-.058.822.1l-.066.085c.199.059.255-.09.293-.22.038-.131.056-.244.274-.109l-.028.054c.486.077.907.005 1.36.046.024-.226.095-.397.27-.496-.223-.208-.171-.343-.147-.501.028-.153.033-.324-.274-.473.151-.122.26-.167.349-.234.091-.073.171-.171.274-.483.029-.161-.387-.315-.448-.405l.321-.004-.34-.158.387-.086-.085-.108c-.018.045-.146.094-.236.085-.147-.171.227-.419.392-.423l-.274-.406c.133.009.175.077.26.131-.331-.216.34-.041.038-.239-.076.027-.194-.014-.26-.018.194-.099.198-.324.113-.491l.223.032c.056-.302-.109-.636-.105-.974-.103.122-.491.094-.529-.005l.341-.04c-.213-.063-.128.104-.388-.027.038-.127.388-.086.501-.014l-.119-.153c.105-.009.157.027.289.036-.213-.063.345-.266-.023-.356l.103-.009c.005-.338-.113-.491-.132-.766-.293-.005-.231-.113-.468-.194.095-.203.326-.428.303-.672-.147-.171-.251-.049-.426-.126.27-.013.246-.256.435-.13-.042-.293-.052-.374-.269-.744-.109.04-.156.086-.251.063-.042-.068.114-.153.241-.144l.029.018c-.402-.415.784-.96.222-1.294l.028.018-.293-.342c.047-.158.203.094.369-.023-.449-.369.066-.585-.232-.892.397-.18.382-.622.331-1.005-.052-.401-.137-.739.118-1.208l-.189.158c-.185-.023.108-.253.151-.406-.146.127-.17.289-.269.27a2.818 2.818 0 0 1-.057-.585c-.524.004-.983-.081-1.507-.185l-.831-.158-.45-.072-.112-.018-.057-.013-.118-.027c-.274-.05-.156.919-.5.495l.098-.329c-.552.397-1.134-.013-1.672.325.033-.077.033-.176.085-.176-.113-.239-.425-.013-.425.185-.085-.023-.02-.176-.07-.275-.114-.14-.29.306-.35.067-.01-.04.033-.076.051-.094-.075.117-.35-.032-.278.248-.203-.131-.388.121-.553-.041-.104.311-.35-.148-.383.288.015-.45-.359-.365-.486-.153.043-.135-.114-.14-.062-.333-.146.004-.283.09-.254.324-.27-.541-.544.438-.695-.257a5.243 5.243 0 0 1-1.233.514c.014-.451.435-.045.415-.518-.373.185-.585.572-.954.464-.094-.063.053-.194.086-.275-.374.185-.719-.04-1.05.203 0-.04.039-.09.072-.122-.067.014-.151-.067-.147.14l.062-.054c.103.298-.26.622-.27.78.11-.591-.326-.149-.15-.893-.043.041-.095.135-.085.275a.147.147 0 0 1-.067-.095c-.014-.045.019-.103.048-.18-.36.113-.218.329-.53.325-.018-.099.038-.14.052-.257-.146.194-.231.388-.52.302-.009-.059-.07-.14.01-.135-.231.013-.368.144-.486.247-.123.104-.227.176-.539.082-.25-.433-.288-.145-.694-.514l-.08.05.066.216c.06.018.127.045.188.067-.004.23.28.636.152.717l-.161-.279.075.464c.048-.05.1-.09.147-.131.203.334.496.311.387.473-.042-.067-.004.158-.236.154.123.153.255.279.16.378-.127 0-.434-.153-.514-.153.326.189.09.531.44.671-.081-.04-.289-.054-.331-.04.09.031.179.063.264.085-.085.073-.128.082-.288.068-.048.212.496-.068.284.185-.024-.018-.062-.009-.105-.05-.113.253.17.487.038.717-.392.068-.094-.203-.43-.122.071.334.473.69.378 1.014l.043-.059c.557.046-.274.239-.015.402-.042-.041-.307-.054-.245-.041-.09.221.137.451.312.784l-.142-.04c-.127.131-.075.342-.137.482.142.04.118.122.326.072-.812.433.435.825-.24 1.213 0-.046-.124-.109-.129-.072l.133.328c.24-.026.146-.045.335-.112.142.04.255.135.255.216-.16-.149-.387 0-.524.063.075-.009.156.009.231.005-.43.171.487.027.199.261l-.128-.014c.066.086.232.167.198.262-.278.04-.132-.095-.363-.099.014.131.529.261.25.383-.08-.054-.08-.135-.156-.194-.33.131-.245.144-.297.243l.01-.008-.152.225.09-.059c.732.167.132.338.614.559-.454-.217-.265-.036-.58-.054-.091.059-.19.144-.28.117.255.104-.203.176.175.324-.104.005-.01.113-.27.091.081.135.18-.032.307-.023.35.212-.424.496.058.803.198.261.542.311.713.554-.165.081-.373-.068-.373-.068-.152.131-.123.235-.005.357-.09-.028-.166 0-.279.04.028.099.373.068.222.198-.113-.023-.297-.049-.41-.099.094.117.282.234.377.356-.18.032-.27-.072-.387-.117.08.135.16.356.444.397l.099-.091c.014.05-.241.027-.293-.009-.222-.117.1-.171.199-.175l.066.085c.6-.09-.095-.351-.062-.522l.435.072-.364-.181c.113-.036.36-.063.42.023.218-.127-.155-.113.086-.221.037-.014.056-.004.075.005l-.128-.122c.09.022.307-.023.246.054.25-.221-.326-.356.005-.437l.028.018c-.146-.307-.321-.032-.694-.257l.788-.153-.32-.032c.01-.031.037-.094.165-.081-.218-.117-.138.018-.345-.05.293-.153-.137-.419.373-.45-.246-.054-.189.144-.359-.019.548-.044-.094-.189.156-.324.283.041.132.176.387.036-.477-.086.104-.27.015-.388-.383-.004-.161-.252-.289-.45.128.013.208-.37.345-.55l.066.005c-.387-.037-.312-.226-.392-.361.232.005.322.031.425.104v-.131c-.122-.031-.188-.072-.23-.153l.287.031c-.014-.171-.34-.347-.146-.567-.27-.014-.746.175-.926-.059.147-.009.392-.018.454.045-.02-.018-.124-.072-.058-.113l.246.095c.109-.099-.203-.054-.18-.135.208 0 .147-.059.313-.05.019.023-.086.072-.005.099.038-.09.16-.198.317-.234-.119.009-.28 0-.308-.068-.014-.171.25-.058.355-.158-.142-.04.004-.152-.303-.152 0-.05.147-.059.232-.082-.137-.09-.038-.414-.368-.315l-.025.022c-.004-.004-.004-.009-.014-.014-.307-.292.175-.604.043-.892h.104c-.118-.171-.071-.383-.293-.505 0-.049.189-.121.312-.099-.076-.131-.194-.148-.024-.338.18.131.16-.045.132.135.09-.171.256-.211-.028-.391.265.063.335-.131.255-.212l-.189.121c-.038-.09-.014-.171.01-.252l.35.045c.212-.176.033-.334-.114-.482-.07-.072-.137-.149-.137-.212 0-.036.061-.072.236-.077-.245-.076-.17.072-.458.014.047-.122.547-.09.547-.09.194.009-.51-.266-.377-.347-.123-.054-.458-.189-.576-.415.047-.126.524.212.623.329.01.027-.028.009-.07-.018a.471.471 0 0 0 .23.171l-.122-.085c.127.036.113-.059.317.117-.118-.131-.204-.185-.27-.185.128.032.076-.04.08-.094.024 0 .058.008.114.045-.076-.068-.227-.204-.208-.204.298.15-.128-.225-.014-.279.207.181.283.433.298.279.141.122.193.316.25.411-.048-.113.019-.077.07-.005.057.072.11.176.123.198.005.032.015.063.024.095-.019-.058-.01-.054 0-.054a2.368 2.368 0 0 0-.085-.239c.028.041.043.041.066.14-.019-.157-.127-.396-.113-.609.061.122.132-.13.165.185-.118-.108.024.316-.028.37.004-.036.019-.036.033.004.004.036 0 .064 0 .082.019.072.01.08.028.063.028-.018.043-.072.057-.135.028-.122.061-.28.193-.28-.033.176.062.338.105.298-.105-.005-.053-.298.047-.433.17.139.184-.104.27-.086l-.1-.063c.033-.176.118-.153.236-.212.01.14-.104.095-.066.158.127-.311.293.325.473.112.084.122.008.334.08.415.202-.23.221.243.434.054-.061-.239-.07-.18.08-.414l-.35.167.228-.348c-.104-.004-.223.149-.289.109.109-.194.095-.135.048-.334.146.356.288-.207.453.032l-.004.59c.25.261.448-.302.774-.153l-.104-.104c.043-.234.204-.031.307-.126-.01.199.057.271.1.392-.005-.149.24.013.269-.383l.146.262c.265.108.303-.564.553-.496-.076.216.038.356-.132.509.085 0 .16.036.16-.099.048.121.236-.266.312-.077.037-.085.047-.293.142-.279.01.04 0 .099 0 .099 0-.099.151-.135.066-.352.26.618.728-.045.954.487.184-.068.406-.131.576-.144-.01.058 0 .099-.033.076.232.185.142-.567.406-.36.133.32-.141.171-.056.293.037.649.317-.09.496.293l-.042.041c.136.22.33-.248.552-.199 0 0-.01.059 0 .099.151-.333.44-.441.652-.532-.066.253-.094.136-.056.393.094-.037-.029-.415.16-.487.062.139.198.261.217.536l-.18.014c.09.356.232-.014.326.049l-.014.158c.265-.05.303-.442.553-.415l-.019-.117c.156-.387.072.221.232-.072a5.996 5.996 0 0 1-.057.397c.066-.095.354-.384.567-.456-.264.293-.454.442-.567.618.043.005.16-.027.303-.225-.048.035-.124.135-.114.072.208-.311.458-.465.623-.456-.396.501-.212.429-.16.487-.033.086-.099.199-.316.383.146-.058.118.055.051.144-.06.1-.156.176-.132.226.623-.149.019.036.662-.032.042.063.028.09-.01.095l-.383.293c-.188.067-.141-.09-.283-.081-.047.212-.274.09-.444.229.232-.026.33.073.24.195l.299-.172c.34.298-.54.257-.199.555l-.203-.095c.118.153-.004.564.51.712-.075.027-.25.063-.298-.005-.075.365.549.812.232 1.095l-.156-.026c.048.067.293.117.137.202-.066-.004-.155-.026-.165.005.051.036.274.18.184.271l-.174-.077c-.204.356.43.545.538.847-.463 0-.614.279-.685.419l-.067-.005c-.056.415.383.704.563 1.091-.5.239-.208.807-.491 1.19.084-.059.358.009.406.077-.095.09.321.248-.104.234l.01-.031c-.416.067-.308.252-.317.396l.553.023c-.808.378.297.987-.426 1.194.137.049.137.063.274.127l-.297-.05c-.076.04-.114.026-.043.121-.07-.045-.141-.085-.213-.126-.018-.018.856.559.874.685-.146-.104-.297-.207-.443-.32 0 .032-.033.032-.072.023-.155-.081-.23-.176-.127.09-.038-.063-.113-.185-.113-.203-.061-.009-.213-.288-.005.293-.132-.379-.09-.036-.19.131l-.004-.279a1.982 1.982 0 0 1-.023.22c-.024.059-.043.108-.066.149a.418.418 0 0 1-.199.18c-.047-.036-.042-.225.024-.153-.16-.144-.128.266-.322.117l.071-.18c-.165-.023-.15.072-.246.284-.103.113-.316-.072-.34-.325-.023.153-.113.361-.212.288-.014-.094.024-.152.043-.184-.28-.19-.416.325-.605.049-.005-.094-.014-.139-.033-.166.222.004.397.022.382.04 0-.256-.179-.302-.037-.658-.142.194-.387.613-.562.496-.01-.027-.02-.049-.024-.09l.019-.027c-.043-.027-.076 0-.109.04-.056-.04-.09-.072-.146-.076-.02-.212-.204-.113-.293-.126.01.279-.109.234 0 .468-.014-.018.019-.031.075-.045.014-.009.029-.013.038-.027l-.004.023a2.24 2.24 0 0 1 .221-.018c-.07.144-.141.261-.24.108-.047.18-.095.365-.123.455-.123-.392-.36-.604-.387-.847-.275.157-.643.103-.813.631-.076.067-.09-.153-.118-.235.042-.054.099-.045.123-.122-.156.136-.458.055-.496.424-.194-.166.108-.337-.156-.279l.037-.113c-.524-.59-.855.942-1.44.185.042.045.061.068.07.131-.665-.334-1.37.315-2.026-.217-.19-.108-.207.131-.321.307l-.043-.302-.193.347c-.274.257-.478-.744-.827-.257l.047.203c-.127-.04-.397.121-.377-.113-.014.036-.043.212-.09.104l-.005-.158-.307.27c-.241-.112.038-.626-.312-.658-.127.063-.368.46-.321.568.052.01.132.099.137.257l-.118.081c-.024.465-.113.943.179 1.271l.203-.284.066.225-.17.014c.1.212.161.023.227-.103.014.122.043.202.085.248l.198-.447c.024.185-.09.361.043.464.095-.207-.09-.41.066-.545.1.212.071.383.185.203.013.122-.01.198-.053.248.1-.145.27-.063.322-.307.1.262.344-.067.33.375.034-.104.18-.348.275-.365-.17.527.35.031.302.599.127-.473.453-.212.68-.473-.014.035-.038.112-.056.089.127.041.16.185.24.271.014-.392.213-.482.317-.725.156.378-.095.459-.048.824-.01-.32.27-.315.218-.581.118.234.099.113.16.437.02-.491.11-.081.208-.383.17.244.043.459.232.311.085.176-.085.347-.085.347zm4.454-.847v.004c-.038.005-.07.014-.09.018.015-.004.043-.008.09-.022zm.373-.005a.597.597 0 0 0-.16-.009c-.014-.099 0-.198.038-.194-.024.068.066.122.122.203zm-.793-1.947c.061-.04.08.014.085.072a.458.458 0 0 0-.104.032c0 .009-.005.022-.005.036.01-.054.014-.103.024-.14z"/></svg>